<svg id="Capa_1" enable-background="new 0 0 512 512" height="512" viewBox="0 0 512 512" width="512" xmlns="http://www.w3.org/2000/svg"><circle cx="256" cy="256" fill="#83f600" r="256"/><path d="m512 256c0 87.11-43.52 164.07-110 210.31-41.41 28.8-91.73 45.69-146 45.69s-104.59-16.89-146-45.69c-66.48-46.24-110-123.2-110-210.31 0-46.22 12.25-89.57 33.68-127 44.12 77.07 127.16 129 222.32 129s178.21-51.93 222.32-129c21.43 37.43 33.68 80.78 33.68 127z" fill="#00cb7f"/><path d="m481.26 377.7v.01c-43.29 79.97-127.94 134.29-225.26 134.29s-181.97-54.32-225.26-134.29v-.01z" fill="#008d92"/><path d="m285.079 258.973v25.72c0 71.78-42.44 133.65-103.61 161.86-5.71 2.64-11.85 3.95-17.99 3.95-.32 0-.64 0-.96-.02-5.83-.12-11.64-1.43-17.04-3.93-61.16-28.22-103.6-90.08-103.6-161.86v-25.72c0-67.11 54.36-121.52 121.46-121.6h.14c33.58 0 63.98 13.61 85.98 35.62 22.01 22 35.62 52.4 35.62 85.98z" fill="#ffe853"/><path d="m285.079 258.973v25.72c0 71.78-42.44 133.65-103.61 161.86-5.71 2.64-11.85 3.95-17.99 3.95-.32 0-6.421-5.212-9.048-7.913-37.571-38.637-60.712-91.392-60.712-149.547v-30.98c0-87.342 69.76-124.69 69.76-124.69 33.58 0 63.98 13.61 85.98 35.62 22.01 22 35.62 52.4 35.62 85.98z" fill="#fed110"/><path d="m285.079 258.973v25.72c0 71.78-42.44 133.65-103.61 161.86-5.71 2.64-11.85 3.95-17.99 3.95v-313.13c33.58 0 63.98 13.61 85.98 35.62 22.01 22 35.62 52.4 35.62 85.98z" fill="#ff9f00"/><path d="m146.951 272.485c.01.39.015.778.014 1.165-.011 3.44-4.5 4.702-6.4 1.835-6.909-10.428-18.75-17.304-32.197-17.304-13.446 0-25.283 6.875-32.191 17.301-1.9 2.868-6.39 1.605-6.401-1.835 0-.04 0-.081 0-.122 0-21.57 17.691-39.008 39.356-38.589 20.502.398 37.278 17.051 37.819 37.549z" fill="#313b5a"/><path d="m257.168 272.485c.01.39.015.778.014 1.165-.011 3.44-4.5 4.702-6.4 1.835-6.909-10.428-18.75-17.304-32.197-17.304-13.446 0-25.283 6.875-32.191 17.301-1.9 2.868-6.39 1.605-6.401-1.835 0-.04 0-.081 0-.122 0-21.57 17.691-39.008 39.356-38.589 20.502.398 37.278 17.051 37.819 37.549z" fill="#20273a"/><path d="m228.679 325.683c0 35.36-29.47 63.83-65.2 62.17-6.87-.32-13.98-1.74-21.14-4.46-15.04-5.69-27.12-17.48-33.12-32.41-5.54-13.81-6.25-27.48-3.34-39.74.31-1.33 2.15-1.47 2.65-.21 8.76 22.2 29.92 38.15 54.95 39.32.98.05 1.97.07 2.96.07 26.31 0 48.8-16.31 57.91-39.37.5-1.28 2.34-1.12 2.65.21 1.1 4.63 1.68 9.46 1.68 14.42z" fill="#313b5a"/><path d="m228.679 325.683c0 35.36-29.47 63.83-65.2 62.17v-37.5c.98.05 1.97.07 2.96.07 26.31 0 48.8-16.31 57.91-39.37.5-1.28 2.34-1.12 2.65.21 1.1 4.63 1.68 9.46 1.68 14.42z" fill="#20273a"/><path d="m456.07 320.47v25.72c0 39.04-12.56 75.15-33.86 104.51-25.42 21.73-55.16 38.56-87.74 49.05-3.39 1.09-6.82 2.11-10.28 3.06-4.05 1.12-8.14 2.14-12.27 3.06-37.87-18.8-68.09-50.66-84.78-89.7-6.72-15.72-11.25-32.61-13.19-50.28-.71-6.47-1.08-13.04-1.08-19.7v-25.72c0-22.15 5.93-42.93 16.28-60.82 3.54-6.12 7.6-11.9 12.13-17.28 9.74-11.63 21.63-21.41 35.06-28.73 17.23-9.4 36.98-14.74 57.99-14.77h.14c33.58 0 63.98 13.61 85.98 35.62 22.01 22 35.62 52.4 35.62 85.98z" fill="#65b2fe"/><path d="m456.07 320.47v25.72c0 39.04-12.56 75.15-33.86 104.51-25.42 21.73-55.16 38.56-87.74 49.05-3.39 1.09-6.82 2.11-10.28 3.06-15.79-16.51-28.98-35.55-38.88-56.44-3.02-6.34-5.72-12.86-8.11-19.53-6.77-18.92-10.96-39.07-12.14-60.03-.23-4.06-.35-8.15-.35-12.27v-30.98c0-3.75.13-7.41.38-10.97 1.77-25.79 9.7-46.81 19.6-63.45 20.61-34.65 49.78-50.27 49.78-50.27 33.58 0 63.98 13.61 85.98 35.62 22.01 22 35.62 52.4 35.62 85.98z" fill="#0e9ce7"/><path d="m456.07 320.47v25.72c0 39.04-12.56 75.15-33.86 104.51-25.42 21.73-55.16 38.56-87.74 49.05v-300.88c33.58 0 63.98 13.61 85.98 35.62 22.01 22 35.62 52.4 35.62 85.98z" fill="#1076e4"/><path d="m317.942 301.014c.01-.39.015-.778.014-1.165-.011-3.44-4.5-4.702-6.4-1.835-6.909 10.428-18.75 17.304-32.197 17.304-13.446 0-25.283-6.875-32.191-17.301-1.9-2.868-6.39-1.605-6.401 1.835v.121c0 21.57 17.691 39.009 39.356 38.589 20.502-.397 37.278-17.05 37.819-37.548z" fill="#313b5a"/><path d="m428.16 301.014c.01-.39.015-.778.013-1.165-.011-3.44-4.5-4.702-6.4-1.835-6.909 10.428-18.75 17.304-32.197 17.304-13.446 0-25.283-6.875-32.191-17.301-1.9-2.868-6.39-1.605-6.401 1.835v.121c0 21.57 17.691 39.009 39.356 38.589 20.503-.397 37.279-17.05 37.82-37.548z" fill="#20273a"/><path d="m399.671 442.876c0-35.36-29.47-63.83-65.2-62.17-6.87.32-13.98 1.74-21.14 4.46-15.04 5.69-27.12 17.48-33.12 32.41-5.54 13.81-6.25 27.48-3.34 39.74.31 1.33 2.15 1.47 2.65.21 8.76-22.2 29.92-38.15 54.95-39.32.98-.05 1.97-.07 2.96-.07 26.31 0 48.8 16.31 57.91 39.37.5 1.28 2.34 1.12 2.65-.21 1.1-4.629 1.68-9.46 1.68-14.42z" fill="#313b5a"/><path d="m399.671 442.876c0-35.36-29.47-63.83-65.2-62.17v37.5c.98-.05 1.97-.07 2.96-.07 26.31 0 48.8 16.31 57.91 39.37.5 1.28 2.34 1.12 2.65-.21 1.1-4.629 1.68-9.46 1.68-14.42z" fill="#20273a"/></svg>