<svg id="Layer_1" enable-background="new 0 0 512 512" height="512" viewBox="0 0 512 512" width="512" xmlns="http://www.w3.org/2000/svg"><g><path d="m468.708 388.652c20.545-35.845 32.294-77.377 32.294-121.654 0-135.311-109.691-245.002-245.002-245.002s-245.002 109.691-245.002 245.002c0 44.277 11.749 85.809 32.294 121.654z" fill="#e80054"/><path d="m469.826 386.652c-5.395-23.195-11.799-45.893-19.415-67.412-1.798-5.186-5.038-9.083-8.531-11.961-9.677 13.856-51.943 79.271-52.07 164.967 33.087-21.615 60.622-51.011 80.016-85.594z" fill="#fee77f"/><path d="m389.81 472.246c15.737-10.281 30.224-22.313 43.172-35.835-8.794-30.294-17.54-54.208-22.734-68.539-10.958 28.104-20.378 63.985-20.438 104.374z" fill="#ffdd40"/><path d="m122.19 472.246c-.127-85.695-42.393-151.111-52.07-164.967-3.493 2.878-6.733 6.775-8.531 11.961-7.616 21.518-14.02 44.217-19.415 67.412 19.394 34.583 46.929 63.979 80.016 85.594z" fill="#ffc839"/><path d="m61.589 319.24c-7.616 21.518-14.02 44.217-19.415 67.412 10.348 18.453 23.011 35.429 37.602 50.535 5.547-22.644 11.369-39.173 16.041-49.809 2.024-4.608 5.074-8.607 8.838-11.758-12.864-35.705-29.01-60.43-34.536-68.341-3.492 2.878-6.732 6.775-8.53 11.961z" fill="#ffb332"/><path d="m299.56 220.939c-8.359 9.029-17.444 15.095-25.263 19.074-11.831 6.02-25.745 6.029-37.578.013-7.625-3.876-16.438-9.733-24.605-18.391-.725 7.069-1.855 15.018-4.893 20.011-.912 1.5-2.411 2.543-4.116 2.961l-.023.006c.163.958.358 1.904.567 2.845 3.238 6.6 12.228 18.141 37.171 31.468 1.538.821 2.528 2.261 2.718 3.948l.152 1.362h24.62l.152-1.362c.19-1.688 1.18-3.127 2.718-3.948 23.814-12.724 33.085-23.819 36.693-30.541.299-1.243.57-2.497.788-3.771-1.725-.417-3.237-1.476-4.156-2.995-3.125-5.161-4.224-13.454-4.945-20.68z" fill="#fcad6d"/><path d="m257.163 244.475c-7.015.281-14.085-1.207-20.526-4.49-7.607-3.877-16.387-9.722-24.524-18.35-.725 7.069-1.855 15.018-4.893 20.011-.912 1.5-2.411 2.543-4.116 2.961l-.023.006c.163.958.358 1.904.567 2.845 3.238 6.6 12.228 18.141 37.171 31.468 1.538.821 2.528 2.261 2.718 3.948l.152 1.362h3.323c7.41-9.865 9.556-28.219 10.151-39.761z" fill="#fd995b"/><path d="m268.509 282.702h-25.018c.24 1.634-.321 3.375-1.763 4.592l-33.727 28.459.235.939c46.159 185.225 44.317 175.224 47.069 195.299.232.001.463.009.696.009.269 0 .536-.009.804-.01 4.99-31.409-3.576 9.261 46.961-195.3l.232-.937-33.725-28.458c-1.444-1.219-2.004-2.959-1.764-4.593z" fill="#d3dcfb"/><path d="m255.871 344.34c-18.452 18.453-38.158 0-38.158 0l-2.814-.921c39.318 157.56 37.792 149.515 40.404 168.572.232.001.463.009.696.009.269 0 .536-.009.805-.01 4.752-29.913-2.788 5.539 40.12-167.65-26.016 18.892-41.053 0-41.053 0z" fill="#bec8f7"/><g fill="#e9efff"><path d="m311.336 245.149c-.621-1.665-2.958-1.725-3.608-.071-2.379 6.055-10.382 18.127-37.272 32.495-4.195 2.241-4.8 7.86-1.187 10.909l32.987 27.835c.001 0 15.971-52.692 9.08-71.168z"/><path d="m241.543 277.573c-26.89-14.368-34.893-26.44-37.272-32.495-.65-1.654-2.987-1.593-3.608.071-6.891 18.476 9.08 71.168 9.08 71.168l32.987-27.835c3.614-3.049 3.008-8.668-1.187-10.909z"/><path d="m243.692 458.627c9.964 40.079 9.947 41.213 11.612 53.365.232.001.463.009.696.009.269 0 .536-.009.804-.01 3.142-19.782.909-10.977 11.457-52.875v-176.414h-24.569z"/></g><path d="m243.692 352.496v106.13c9.964 40.079 9.947 41.213 11.612 53.365.232.001.463.009.696.009.269 0 .536-.009.804-.01 3.142-19.782.91-10.977 11.457-52.875v-106.618c-3.068 12.431-21.5 12.433-24.569-.001z" fill="#d3dcfb"/><path d="m442.575 307.875c-4.452-3.887-9.493-6.28-15.089-7.925-.002 0-.014-.003-.014-.003v-.001c-31.74-9.331-62.419-23.401-84.135-34.495l-81.165 211.467-.543 2.178-2.141 8.84c-1.922 7.934-3.331 15.968-4.249 24.055.254.001.507.01.761.01 49.859 0 96.23-14.907 134.926-40.488.361-84.155 41.263-148.62 51.649-163.638z" fill="#ffc839"/><path d="m356.312 290.557-6.25-19.883c-1.063-3.383-3.477-6.22-6.711-7.851-15.512-7.824-27.555-15.698-31.933-18.663-.542-.367-1.225.167-1.013.787 1.034 3.026 1.56 6.196 1.542 9.394-.054 9.774-1.609 22.946-3.523 32.548l28.642 22.685 16.116-10.518c2.85-1.859 4.12-5.306 3.13-8.499z" fill="#ffdd40"/><path d="m350.202 317.291c-15.466-10.49-33.107-26.981-40.979-34.588l-47.594 196.393c42.03-40.786 80.453-120.773 92.685-147.687 2.297-5.055.555-10.954-4.112-14.118z" fill="#fcf0be"/><path d="m354.925 403.977c-3-4.774-9.957-4.774-12.957 0l-12.675 20.168h38.307z" fill="#fff5ee"/><path d="m252.512 487.935-2.141-8.84-2.151-8.618-71.802-209.057c-21.767 11.509-56.162 28.022-91.892 38.526v.001s-.011.003-.014.003c-5.596 1.645-10.636 4.038-15.089 7.925 10.386 15.018 51.289 79.483 51.65 163.637 38.697 25.58 85.068 40.488 134.927 40.488.254 0 .507-.009.761-.01-.919-8.087-2.328-16.121-4.249-24.055z" fill="#ffb332"/><path d="m195.951 318.291-19.532-56.87c-21.767 11.509-56.162 28.022-91.892 38.525v.001s-.011.003-.014.003c-5.596 1.645-10.636 4.038-15.089 7.925 5.926 8.569 21.788 33.241 34.386 68.478 3.668-3.293 8.08-5.75 12.95-7.098 41.658-11.528 69.57-39.719 69.57-39.719z" fill="#ff9100"/><path d="m155.688 290.557 6.25-19.883c1.063-3.383 3.477-6.22 6.711-7.851 15.144-7.638 26.981-15.324 31.608-18.443.646-.435 1.456.197 1.214.937-.952 2.914-1.436 5.957-1.419 9.025.054 9.774 1.609 22.946 3.523 32.548l-28.641 22.685-16.116-10.518c-2.851-1.86-4.12-5.307-3.13-8.5z" fill="#ffdd40"/><path d="m202.776 282.702c-7.872 7.608-25.513 24.098-40.979 34.588-4.666 3.165-6.409 9.063-4.112 14.117 12.232 26.914 50.654 106.902 92.685 147.687z" fill="#fcf0be"/><g><path d="m240.288.951c-45.823 6.243-50.178 32.223-50.198 41.755-.005 1.999-1.112 3.852-2.909 4.726-23.835 11.595-10.984 67.479-10.984 67.479 2.394.16 4.899 1.129 6.768 2.034.457-2.848 1.204-5.651 2.259-8.361.804-2.065 1.809-4.151 3.065-6.122 2.18-3.42 3.173-7.454 2.877-11.487-.857-11.659-.444-34.631 14.945-41.555 13.037-5.866 29.029-2.469 39.228.922 6.623 2.202 13.798 2.202 20.421 0 10.198-3.391 26.191-6.788 39.228-.922 15.345 6.904 15.799 29.766 14.952 41.455-.294 4.064.672 8.14 2.868 11.586 1.297 2.034 2.326 4.192 3.143 6.322 1.015 2.648 1.737 5.384 2.183 8.162 2.355-1.141 5.722-2.384 8.602-1.977.353-12.219 1.481-25.393 1.481-25.393 13.577-66.507-48.59-95.346-97.929-88.624z" fill="#823c26"/></g><path d="m244.657 50.124c-.136-.243-.263-.486-.407-.728-19.142-32.276 7.888-49.143 7.888-49.143l-.288-.219c-3.903.096-7.77.4-11.562.917-45.823 6.243-50.178 32.223-50.198 41.755-.004 1.999-1.112 3.852-2.909 4.726-23.835 11.595-10.984 67.479-10.984 67.479 2.394.16 4.899 1.129 6.768 2.034.458-2.848 1.204-5.651 2.259-8.361.804-2.065 1.809-4.151 3.065-6.122 2.18-3.42 3.173-7.454 2.877-11.487-.857-11.658-.444-34.631 14.945-41.555 12.755-5.74 28.328-2.61 38.546.704z" fill="#702f1e"/><path d="m342.208 116.356c-3.569-3.271-10.678-1.613-13.752.39.673 4.193.711 8.483.13 12.72l-3.628 26.419c0 2.13-.067 4.219-.19 6.272 8.845 2.668 13.238-5.273 13.979-10.722.318-2.346.839-4.658 1.562-6.914 2.353-7.35 10.841-19.971 1.899-28.165z" fill="#fcad6d"/><g><path d="m334.118 143.255c-2.688 0-5.153-.953-7.077-2.539l-2.083 15.167c0 2.13-.067 4.219-.19 6.272 8.845 2.668 13.238-5.273 13.979-10.722.318-2.346.839-4.658 1.562-6.914.449-1.402 1.121-2.996 1.853-4.714-2.028 2.122-4.878 3.45-8.044 3.45z" fill="#fd995b"/></g><path d="m169.535 116.356c3.569-3.271 10.678-1.613 13.752.39-.673 4.193-.712 8.483-.13 12.72l3.627 26.419c0 2.13.067 4.219.191 6.272-8.845 2.668-13.239-5.273-13.979-10.722-.319-2.346-.84-4.658-1.562-6.914-2.353-7.35-10.841-19.971-1.899-28.165z" fill="#fcad6d"/><g><path d="m184.594 139.93c-2.019 2.051-4.825 3.325-7.931 3.325-2.439 0-4.688-.793-6.522-2.124.508 1.215.962 2.355 1.293 3.388.722 2.256 1.243 4.568 1.562 6.914.74 5.449 5.134 13.39 13.979 10.722-.124-2.053-.191-4.142-.191-6.272z" fill="#fd995b"/></g><path d="m185.891 156.083c0 3.868.217 7.583.603 11.163.524 1.735 15.636 50.173 69.93 50.173 54.182 0 67.663-48.238 68.178-50.16.382-3.56.598-7.254.597-11.098l3.628-26.419c.995-7.245.184-14.564-2.346-21.163-.901-2.352-1.976-4.513-3.193-6.424-2.082-3.266-3.07-7.258-2.781-11.239.921-12.709.159-35.066-15.286-42.017-12.972-5.835-28.716-2.732-39.639.902-6.47 2.153-13.596 2.152-20.065 0-10.924-3.633-26.668-6.74-39.639-.902-6.642 2.989-17.459 12.435-15.279 42.118.288 3.91-.703 7.866-2.788 11.139-1.183 1.855-2.231 3.948-3.116 6.221-2.591 6.656-3.429 14.041-2.424 21.36z" fill="#f9ba8f"/><path d="m185.891 156.083c0 3.867.217 7.583.603 11.162.487 1.612 13.689 43.925 59.604 49.553-10.505-13.372-20.817-33.445-20.817-60.715l-3.622-26.346c-1.005-7.319-.166-14.704 2.424-21.36.884-2.272 1.933-4.366 3.116-6.221 2.085-3.273 3.076-7.228 2.788-11.139-2.072-28.217 7.598-38.142 14.264-41.621-10.852-3.447-25.891-6.116-38.375-.497-6.642 2.989-17.459 12.435-15.279 42.118.288 3.91-.703 7.866-2.788 11.139-1.183 1.855-2.231 3.948-3.116 6.221-2.59 6.656-3.429 14.041-2.424 21.36z" fill="#fcad6d"/><path d="m324.619 167.194c-2.86 7.057-9.498 15.547-20.391 20.272-2.011-11.989-10.661-23.994-22.21-26.613l-17.652-5.186c-3.069-.902-6.141.673-7.377 3.346-.226.489-.907.489-1.133 0-1.236-2.673-4.308-4.247-7.377-3.346l-17.652 5.186c-11.777 2.671-20.545 15.101-22.327 27.323-12.049-4.544-19.016-13.557-22.023-20.982 6.272 44.425 31.683 65.418 50.16 74.835 11.844 6.036 25.813 6.056 37.66.027 18.481-9.403 44.044-30.395 50.322-74.862zm-48.539 45.435c-7.581 2.679-15.854-2.09-16.826-9.982-.012-.102-.024-.205-.036-.309-.159-1.472-1.391-2.603-2.891-2.603-1.5 0-2.732 1.131-2.891 2.603-.012.104-.023.207-.036.309-.971 7.892-9.244 12.66-16.826 9.982-10.432-3.686-14.918-10.666-16.847-15.784 5.652-7.731 13.973-13.277 23.551-15.392l3.153-.696c4.595-1.014 8.149-5.501 9.452-10.28.15-.549.93-.549 1.079 0 1.303 4.78 4.857 9.266 9.452 10.28l3.153.696c9.063 2.001 17.003 7.072 22.619 14.159-1.161 5.169-4.807 13.025-16.106 17.017z" fill="#823c26"/><path d="m243.355 213.165-.007-.029c-2.178.416-4.505.293-6.773-.508-10.432-3.686-14.919-10.666-16.848-15.784 4.147-5.673 9.736-10.163 16.2-12.99-14.505-4.399-9.547-19.578-8.718-21.836-9.927 4.132-17.114 15.225-18.708 26.158-12.049-4.544-19.016-13.557-22.023-20.982 6.272 44.425 31.683 65.418 50.16 74.835 6.501 3.313 13.643 4.802 20.722 4.484-24.329-11.102-14.005-33.348-14.005-33.348z" fill="#702f1e"/><g><g><path d="m274.739 107.321c-8.937 2.89-13.503 13.601-7.913 22.402 6.78 10.675 19.618 24.667 35.775 24.667 16.156 0 21.638-15.723 21.638-25.244s-5.915-25.244-26.687-25.244c-9.655 0-17.346 1.651-22.813 3.419z" fill="#fcf0be"/></g></g><path d="m288.515 129.723c-5.59-8.801-1.024-19.512 7.913-22.402 2.717-.878 5.985-1.728 9.768-2.36-2.545-.678-5.414-1.059-8.644-1.059-9.654 0-17.346 1.651-22.813 3.419-8.937 2.89-13.503 13.601-7.913 22.402 6.78 10.675 19.618 24.667 35.774 24.667 3.926 0 7.216-.934 9.956-2.476-10.61-4.491-19.001-14.256-24.041-22.191z" fill="#fee77f"/><g><g><path d="m238.108 107.321c8.937 2.89 13.503 13.601 7.913 22.402-6.78 10.675-19.618 24.667-35.774 24.667s-21.638-15.723-21.638-25.244 5.914-25.244 26.686-25.244c9.655 0 17.346 1.651 22.813 3.419z" fill="#fcf0be"/></g></g><path d="m212.186 129.146c0-7.9 4.082-20.063 17.337-23.977-4.108-.756-8.863-1.267-14.227-1.267-20.772 0-26.687 15.723-26.687 25.244s5.482 25.244 21.638 25.244c4.559 0 8.854-1.115 12.824-2.955-7.933-5.01-10.885-15.312-10.885-22.289z" fill="#fee77f"/><g><g><path d="m260.348 123.464c-2.385-1.552-5.467-1.552-7.852 0-.077.05-.155.098-.235.143-2.283 1.304-5.191.512-6.495-1.771-1.268-2.218-.555-5.027 1.582-6.38 5.534-3.576 12.67-3.566 18.194.03 2.203 1.434 2.826 4.383 1.392 6.586-1.433 2.202-4.381 2.827-6.586 1.392z" fill="#ffb332"/></g></g><g><path d="m367.6 431.81h-38.307c-4.233 0-7.665-3.431-7.665-7.665s3.432-7.665 7.665-7.665h38.307c4.233 0 7.665 3.431 7.665 7.665 0 4.233-3.432 7.665-7.665 7.665z" fill="#fcf0be"/></g><path d="m348.446 424.144c0-4.234 3.432-7.665 7.665-7.665h-26.818c-4.233 0-7.665 3.432-7.665 7.665 0 4.234 3.432 7.665 7.665 7.665h26.818c-4.233.001-7.665-3.431-7.665-7.665z" fill="#ffdd40"/><path d="m246.643 289.577v-15.328c0-.406.063-.795.155-1.172-12.641-8.506-25.09-10.978-32.421-11.653-3.587-.33-6.654 2.576-6.502 6.175.799 18.956 5.041 31.037 7.793 37.005 1.249 2.707 4.296 4.087 7.151 3.227 13.793-4.152 21.042-11.635 24.327-16.119-.313-.648-.503-1.367-.503-2.135z" fill="#ff4155"/><path d="m297.366 261.424c-7.328.675-19.774 3.18-32.412 11.682.088.368.146.748.146 1.143v15.328c0 .767-.19 1.484-.502 2.132 3.279 4.482 10.519 11.966 24.325 16.122 2.855.859 5.903-.52 7.151-3.227 2.752-5.967 6.994-18.049 7.793-37.005.153-3.599-2.914-6.505-6.501-6.175z" fill="#ff4155"/><path d="m289.976 262.548c-7.042 1.469-15.977 4.473-25.022 10.558.087.368.146.748.146 1.143v15.328c0 .767-.19 1.484-.502 2.132 2.885 3.943 8.843 10.21 19.636 14.49-14.831-29.586 5.675-43.604 5.742-43.651z" fill="#e80054"/><path d="m221.769 262.548c7.042 1.469 15.977 4.473 25.022 10.558-.088.368-.146.748-.146 1.143v15.328c0 .767.19 1.484.502 2.132-2.885 3.943-8.843 10.21-19.636 14.49 14.831-29.586-5.675-43.604-5.742-43.651z" fill="#e80054"/><path d="m261.352 269.31h-10.962c-2.728 0-4.939 2.211-4.939 4.939v15.328c0 2.728 2.211 4.939 4.939 4.939h10.962c2.728 0 4.939-2.211 4.939-4.939v-15.328c0-2.727-2.211-4.939-4.939-4.939z" fill="#ff4155"/><path d="m258.442 272.646c-2.467 0-4.467 2-4.467 4.467v1.872c0 2.467 2 4.467 4.467 4.467 2.467 0 4.467-2 4.467-4.467v-1.872c0-2.467-2-4.467-4.467-4.467z" fill="#ff7186"/><path d="m399.313 68.28c-12.935 9.063-31.133 25.236-31.133 44.501 0 29.885 7.042 50.531-12.279 88.208s81.156 42.469 114.505 75.819c15.805 15.805 19.727 31.942 24.36 45.347 4.079-17.728 6.236-36.191 6.236-55.157 0-81.796-40.093-154.218-101.689-198.718z" fill="#ff4155"/><path d="m10.998 266.998c0 18.966 2.157 37.429 6.236 55.157 4.633-13.405 8.555-29.542 24.36-45.347 33.349-33.349 133.826-38.142 114.505-75.819s-12.279-58.323-12.279-88.208c0-19.265-18.198-35.438-31.133-44.501-61.596 44.5-101.689 116.922-101.689 198.718z" fill="#ff4155"/></g></svg>