<svg id="Layer_1" enable-background="new 0 0 256 256" height="512" viewBox="0 0 256 256" width="512" xmlns="http://www.w3.org/2000/svg"><path d="m112.64 60.916h-66.213l-24.383 88.42 26.933 37.335h128.566l25.745-37.335-24.384-88.42h-66.213z" fill="#4671c6"/><path d="m177.543 188.671h-128.565c-.643 0-1.246-.309-1.622-.83l-26.934-37.335c-.354-.491-.467-1.117-.306-1.701l24.383-88.42c.239-.868 1.028-1.469 1.928-1.469h132.478c.899 0 1.688.601 1.928 1.469l24.384 88.42c.157.569.055 1.18-.281 1.667l-25.745 37.335c-.375.541-.991.864-1.648.864zm-127.542-4h126.492l24.619-35.702-23.731-86.053h-129.431l-23.724 86.027z" fill="#3762cc"/><path d="m50.092 155.124c3.53-1.518 7.571.236 9.027 3.916 1.819 4.6-.283 9.868-4.695 11.765-5.515 2.371-11.83-.368-14.104-6.119-2.843-7.188.441-15.418 7.336-18.382 8.618-3.705 18.484.575 22.038 9.561 4.442 11.232-.69 24.091-11.462 28.723-13.465 5.789-28.882-.899-34.434-14.939-6.94-17.549 1.078-37.642 17.909-44.879z" fill="#4671c6"/><path d="m48.179 188.676c-3.566 0-7.134-.706-10.535-2.121-7.186-2.987-12.764-8.73-15.706-16.171-7.323-18.517 1.19-39.804 18.979-47.451 1.016-.439 2.191.033 2.627 1.047.437 1.015-.032 2.191-1.047 2.627-15.82 6.803-23.375 25.781-16.84 42.307 2.542 6.426 7.345 11.379 13.522 13.948 5.901 2.453 12.386 2.413 18.262-.111 9.771-4.201 14.434-15.932 10.393-26.15-1.555-3.93-4.487-6.958-8.261-8.526-3.596-1.495-7.547-1.472-11.127.067-5.899 2.537-8.711 9.629-6.267 15.811.923 2.332 2.661 4.128 4.895 5.057 2.119.88 4.451.865 6.561-.041 3.422-1.47 5.047-5.594 3.625-9.191-.519-1.31-1.491-2.317-2.739-2.836-1.177-.489-2.469-.48-3.638.021-1.017.437-2.191-.033-2.627-1.047-.437-1.015.032-2.191 1.047-2.627 2.173-.935 4.572-.949 6.753-.041 2.256.938 4.004 2.734 4.923 5.059 2.211 5.589-.375 12.021-5.764 14.338-3.114 1.338-6.551 1.359-9.677.059-3.24-1.348-5.754-3.933-7.077-7.279-3.232-8.173.538-17.573 8.405-20.956 4.58-1.969 9.64-2.003 14.243-.086 4.78 1.987 8.489 5.805 10.444 10.749 4.829 12.21-.793 26.249-12.532 31.296-3.491 1.497-7.167 2.248-10.842 2.248z" fill="#3762cc"/><path d="m175.24 155.124c-3.53-1.518-7.571.236-9.027 3.916-1.819 4.6.283 9.868 4.695 11.765 5.515 2.371 11.83-.368 14.104-6.119 2.843-7.188-.441-15.418-7.336-18.382-8.618-3.705-18.484.575-22.038 9.561-4.442 11.232.69 24.091 11.462 28.723 13.465 5.789 28.882-.899 34.434-14.939 6.94-17.549-1.078-37.642-17.909-44.879z" fill="#4671c6"/><path d="m177.152 188.676c-3.677 0-7.351-.751-10.842-2.252-11.739-5.046-17.361-19.085-12.531-31.295 1.955-4.944 5.664-8.762 10.444-10.75 4.604-1.914 9.66-1.881 14.242.088 7.867 3.382 11.638 12.782 8.405 20.955-1.323 3.347-3.837 5.932-7.077 7.279-3.127 1.299-6.563 1.278-9.677-.059-5.389-2.316-7.975-8.749-5.764-14.338.919-2.324 2.667-4.121 4.923-5.059 2.184-.908 4.583-.894 6.753.041 1.015.436 1.483 1.612 1.047 2.627s-1.61 1.484-2.627 1.047c-1.17-.502-2.461-.512-3.638-.021-1.248.519-2.221 1.526-2.738 2.836-1.423 3.598.202 7.722 3.624 9.191 2.109.908 4.439.921 6.561.041 2.233-.929 3.972-2.725 4.895-5.057 2.444-6.182-.367-13.273-6.267-15.81-3.579-1.541-7.528-1.563-11.126-.069-3.773 1.569-6.707 4.598-8.262 8.527-4.041 10.219.621 21.949 10.393 26.149 5.875 2.527 12.361 2.566 18.262.112 6.178-2.569 10.98-7.522 13.522-13.948 1.496-3.784 2.287-7.759 2.353-11.814.046-2.861-.274-5.726-.952-8.513-2.443-10.035-9.092-18.046-18.24-21.979-1.015-.437-1.483-1.613-1.048-2.628.437-1.014 1.612-1.483 2.628-1.048 10.162 4.369 17.844 13.605 20.547 24.708.758 3.118 1.116 6.321 1.065 9.523-.073 4.539-.959 8.987-2.633 13.221-2.943 7.44-8.521 13.184-15.707 16.171-3.401 1.417-6.969 2.124-10.535 2.124z" fill="#3762cc"/><path d="m173.069 99.314c-.128 0-.252.016-.38.019v-5.631c0-32.916-26.926-59.599-60.141-59.599-33.215 0-60.141 26.683-60.141 59.599v5.631c-.128-.003-.252-.019-.38-.019-10.133 0-18.348 8.141-18.348 18.183s8.215 18.183 18.348 18.183c.666 0 1.321-.039 1.969-.108 6.206 26.366 30.056 46.013 58.552 46.013 28.496 0 52.346-19.647 58.552-46.013.647.068 1.303.108 1.969.108 10.133 0 18.348-8.141 18.348-18.183s-8.215-18.183-18.348-18.183z" fill="#f9cfcf"/><g fill="#3762cc"><path d="m82.663 133.082c-4.004 0-7.261-3.256-7.261-7.259v-12.1c0-4.003 3.257-7.26 7.261-7.26 4.003 0 7.259 3.257 7.259 7.26v12.1c0 4.002-3.257 7.259-7.259 7.259z"/><path d="m142.15 133.082c-4.004 0-7.261-3.256-7.261-7.259v-12.1c0-4.003 3.257-7.26 7.261-7.26 4.003 0 7.259 3.257 7.259 7.26v12.1c0 4.002-3.256 7.259-7.259 7.259z"/><path d="m112.548 183.586c-28.458 0-52.926-18.794-60.088-45.911-11.451.226-20.78-8.906-20.78-20.178 0-10.588 8.262-19.298 18.728-20.119v-3.676c0-33.966 27.876-61.599 62.141-61.599s62.141 27.633 62.141 61.599v3.676c10.466.821 18.729 9.531 18.729 20.119 0 11.129-9.128 20.183-20.348 20.183-.143 0-.287-.002-.433-.005-7.163 27.117-31.632 45.911-60.09 45.911zm-58.55-50.014c.917 0 1.73.631 1.945 1.542 6.163 26.185 29.439 44.472 56.604 44.472s50.442-18.287 56.605-44.472c.23-.981 1.172-1.63 2.157-1.531.604.064 1.196.097 1.759.097 9.014 0 16.348-7.26 16.348-16.183 0-8.92-7.329-16.178-16.34-16.183-.163.012-.253.017-.343.019-.548.028-1.058-.192-1.443-.568-.386-.377-.603-.893-.603-1.431v-5.632c0-31.76-26.082-57.599-58.141-57.599s-58.139 25.839-58.139 57.599v5.632c0 .538-.217 1.054-.603 1.431s-.893.594-1.443.568c-.09-.002-.18-.007-.27-.014-.002 0-.006 0-.009 0-9.075 0-16.403 7.258-16.403 16.178 0 8.923 7.334 16.183 16.348 16.183.569 0 1.145-.031 1.759-.097.071-.007.142-.011.212-.011z"/><path d="m112.548 154.563c-1.615 0-3.025-.163-4.313-.499-2.158-.563-4.058-1.518-5.493-2.759-1.899-1.643-2.946-3.741-2.946-5.91 0-1.104.896-2 2-2s2 .896 2 2c0 1.268.85 2.269 1.563 2.885.975.843 2.319 1.504 3.887 1.913.953.249 2.033.37 3.303.37 1.271 0 2.351-.121 3.302-.369 1.568-.409 2.912-1.071 3.887-1.914.714-.616 1.563-1.616 1.563-2.885 0-1.104.896-2 2-2s2 .896 2 2c0 2.17-1.047 4.27-2.947 5.911-1.436 1.241-3.335 2.194-5.492 2.758-1.287.335-2.698.499-4.314.499z"/></g><ellipse cx="163.108" cy="56.82" fill="#4671c6" rx="24.478" ry="35.097" transform="matrix(.814 -.581 .581 .814 -2.637 105.413)"/><path d="m172.58 90.699c-10.56 0-22.636-6.758-31.016-18.485-5.686-7.958-8.87-17.015-8.967-25.501-.101-8.754 3.076-15.884 8.943-20.076 11.88-8.489 31.219-1.853 43.111 14.79 5.686 7.958 8.87 17.015 8.967 25.501.101 8.754-3.076 15.884-8.943 20.076-3.508 2.507-7.669 3.695-12.095 3.695zm-18.837-63.808c-3.637 0-7.026.964-9.876 3-4.772 3.41-7.354 9.368-7.271 16.776.088 7.677 3.008 15.923 8.222 23.221 10.611 14.851 27.452 21.067 37.531 13.862 4.772-3.41 7.354-9.368 7.271-16.776-.088-7.677-3.008-15.923-8.222-23.221-7.611-10.652-18.426-16.862-27.655-16.862z" fill="#3762cc"/><path d="m147.85 51.942c.819-25.402-18.191-34.767-26.631-37.665-32.025-10.129-61.09 5.27-61.09 5.27h.001c-12.064 5.989-23.277 18.951-23.612 46.407 0 0-.743 12.987-11.594 14.884-1.024.179-1.166 1.585-.186 1.931 9.551 3.373 31.9 10.208 56.343 10.29l-.002.005s.092-.001.229-.004c7.852.013 15.915-.676 23.839-2.401 3.649-.662 7.378-1.506 10.94-2.582 2.772-.68 6.884-2.056 11.293-4.761.072-.043.15-.083.221-.127l-.008-.005c7.877-4.901 16.623-14.079 20.257-31.242z" fill="#4671c6"/><path d="m81.078 95.064c-.05 0-.099-.002-.147-.006-25.04-.11-48.097-7.309-56.859-10.403-1.302-.459-2.102-1.69-1.987-3.063.114-1.388 1.117-2.482 2.493-2.724 9.184-1.605 9.937-12.914 9.942-13.028.29-23.877 8.608-40.084 24.72-48.083 1.171-.621 30.13-15.649 62.583-5.387 8.747 3.004 28.891 12.847 28.026 39.637-.004.117-.018.234-.042.35-3.875 18.301-13.521 27.727-20.998 32.426-.051.039-.104.075-.159.109l-.195.114c-4.689 2.874-9.016 4.304-11.84 5.001-3.347 1.009-7.085 1.891-11.111 2.621-7.391 1.61-15.481 2.433-23.985 2.433-.071 0-.142 0-.213 0l-.185.004c-.015-.001-.029-.001-.043-.001zm-52.68-13.158c10.148 3.356 30.663 9.079 52.688 9.153.033 0 .065.001.099.003l.094-.002h.204c8.251 0 16.057-.792 23.236-2.354 3.967-.721 7.573-1.572 10.788-2.543.033-.011.067-.02.102-.028 2.547-.625 6.475-1.916 10.724-4.523l.104-.06c.032-.023.064-.045.098-.065 9.904-6.161 16.404-16.181 19.321-29.784.684-23.993-17.446-32.84-25.287-35.533-30.77-9.731-59.222 4.997-59.505 5.146-14.704 7.3-22.274 22.32-22.547 44.663-.258 4.539-2.746 12.878-10.119 15.927zm119.452-29.964h.01z" fill="#3762cc"/><path d="m149.515 186.656h-9.721c.015-.378.029-.755.029-1.136v-10.407c-8.185 4.138-17.454 6.473-27.275 6.473-9.827 0-19.101-2.338-27.29-6.481v10.415c0 .381.013.759.029 1.136h-9.706c-16.939 0-30.671 13.732-30.671 30.671v15.386 4.369 8.091h135.276v-8.091-4.369-15.386c0-16.939-13.732-30.671-30.671-30.671z" fill="#f9cfcf"/><path d="m180.187 247.173h-135.277c-1.104 0-2-.896-2-2v-27.846c0-18.015 14.656-32.671 32.671-32.671h7.678v-9.552c0-.695.36-1.34.952-1.704.591-.363 1.329-.396 1.951-.08 8.218 4.157 17.096 6.266 26.386 6.266 9.286 0 18.159-2.105 26.373-6.259.619-.313 1.358-.282 1.95.081.592.364.952 1.01.952 1.704v9.544h7.691c18.016 0 32.672 14.656 32.672 32.671v27.846c.001 1.104-.895 2-1.999 2zm-133.277-4h131.276v-25.846c0-15.81-12.862-28.671-28.672-28.671h-9.721c-.545 0-1.066-.223-1.443-.615-.377-.394-.577-.923-.555-1.468.015-.35.027-.7.027-1.054v-7.246c-7.953 3.527-16.439 5.313-25.275 5.313-8.84 0-17.331-1.788-25.289-5.319v7.253c0 .354.012.704.026 1.054.022.545-.178 1.074-.555 1.468-.377.393-.898.615-1.443.615h-9.706c-15.81 0-28.671 12.861-28.671 28.671v25.845z" fill="#3762cc"/><path d="m154.953 212.802c0-8.734 3.412-16.666 8.968-22.553-4.296-2.29-9.198-3.592-14.406-3.592h-9.747c-.009 0-.018-.001-.027-.002-.741 9.988-12.655 17.928-27.245 17.928-14.589 0-26.503-7.939-27.245-17.926h-9.669c-5.236 0-10.164 1.315-14.477 3.629 5.535 5.884 8.933 13.802 8.933 22.517 0 15.487-10.711 28.465-25.127 31.95v.422h135.276v-.397c-14.47-3.449-25.234-16.452-25.234-31.976z" fill="#e0ebfc"/><path d="m180.187 247.173h-135.277c-1.104 0-2-.896-2-2v-.422c0-.924.633-1.727 1.53-1.944 13.894-3.357 23.598-15.696 23.598-30.005 0-7.886-2.979-15.396-8.391-21.147-.426-.453-.617-1.078-.517-1.692s.48-1.146 1.028-1.44c4.716-2.528 10.049-3.865 15.422-3.865h9.669c1.047 0 1.917.808 1.994 1.852.671 9.014 11.763 16.074 25.251 16.074 13.49 0 24.582-7.062 25.251-16.076.04-.541.299-1.043.717-1.391.383-.317.875-.482 1.366-.459h9.686c5.344 0 10.65 1.323 15.347 3.827.551.293.933.826 1.033 1.441s-.091 1.242-.519 1.696c-5.432 5.756-8.423 13.277-8.423 21.181 0 14.357 9.744 26.705 23.697 30.028.9.214 1.536 1.02 1.536 1.945v.397c.002 1.104-.894 2-1.998 2zm-135.277-2.422h.01zm9.434-1.578h116.299c-10.749-6.049-17.689-17.494-17.689-30.371 0-8.021 2.727-15.693 7.729-21.884-3.517-1.485-7.33-2.262-11.167-2.262h-8.032c-2.029 10.19-14.294 17.926-28.987 17.926-14.692 0-26.957-7.735-28.987-17.926h-7.927c-3.866 0-7.708.788-11.245 2.294 4.984 6.186 7.702 13.847 7.702 21.852-.002 12.864-6.946 24.319-17.696 30.371zm85.396-56.519h.01z" fill="#3762cc"/><ellipse cx="112.656" cy="223.379" fill="#6bdddd" rx="7.534" ry="10.9"/><path d="m112.655 236.278c-5.346 0-9.533-5.666-9.533-12.899s4.188-12.9 9.533-12.9c5.347 0 9.534 5.667 9.534 12.9s-4.187 12.899-9.534 12.899zm0-21.799c-2.999 0-5.533 4.076-5.533 8.9s2.534 8.899 5.533 8.899c3 0 5.534-4.075 5.534-8.899s-2.534-8.9-5.534-8.9z" fill="#3762cc"/><path d="m59.115 120.582c-.16 1.827-.061 3.668.293 5.468.708 3.598 2.425 6.91 4.926 9.577.773.734 3.885 3.26 10.408 3.635.568.02 1.901.05 3.833-.013l.316-.012c2.734-.101 6.548-.388 10.965-1.131 3.8-.64 7.408-2.314 10.162-5.009.287-.281.566-.571.836-.871 2.971-3.304 4.934-7.564 5.351-12.332l.816-9.329c.22-2.513-1.639-4.729-4.152-4.949l-39.474-3.454c-1.462-.128-2.751.954-2.879 2.416z" fill="#4671c6"/><path d="m165.876 120.563c.16 1.827.061 3.668-.293 5.468-.708 3.598-2.425 6.91-4.926 9.577-.773.734-3.885 3.26-10.408 3.635-.568.02-1.901.05-3.833-.013l-.316-.012c-2.734-.101-6.548-.388-10.965-1.131-3.8-.64-7.408-2.314-10.162-5.009-.287-.281-.566-.571-.836-.871-2.971-3.304-4.934-7.564-5.351-12.332l-.816-9.329c-.22-2.513 1.639-4.729 4.152-4.949l39.474-3.453c1.462-.128 2.751.954 2.879 2.416z" fill="#4671c6"/><path d="m76.333 141.287c-.809 0-1.377-.016-1.663-.025-7.219-.415-10.79-3.308-11.713-4.185-.028-.026-.056-.054-.082-.082-2.774-2.958-4.652-6.608-5.429-10.559-.392-1.985-.5-4.014-.323-6.029l1.4-16.003c.108-1.239.692-2.362 1.646-3.162.953-.799 2.155-1.183 3.4-1.071l39.473 3.453c1.748.152 3.332.977 4.46 2.321s1.664 3.047 1.511 4.795l-.815 9.327c-.442 5.06-2.467 9.726-5.855 13.495-.302.334-.609.655-.926.965-2.955 2.893-6.839 4.813-11.229 5.552-3.756.632-7.532 1.021-11.223 1.157l-.31.012c-.908.029-1.688.039-2.322.039zm-10.583-7.074c.573.529 3.282 2.718 9.107 3.053.426.017 1.724.049 3.653-.015l.301-.012c2.425-.09 6.246-.354 10.712-1.105 3.581-.603 6.727-2.146 9.097-4.467.259-.252.508-.513.749-.781 2.802-3.116 4.478-6.979 4.844-11.166l.815-9.328c.06-.685-.149-1.35-.591-1.876-.44-.525-1.06-.848-1.743-.907l-39.474-3.453c-.247-.021-.402.086-.48.151s-.212.21-.232.446l-1.4 16.004c-.144 1.64-.055 3.291.263 4.907.628 3.192 2.142 6.147 4.379 8.549zm-6.635-13.631h.01z" fill="#3762cc"/><path d="m148.635 141.269c-.634 0-1.398-.01-2.284-.039l-.325-.012c-2.533-.094-6.537-.37-11.223-1.158-4.391-.739-8.273-2.659-11.229-5.552-.318-.312-.626-.632-.925-.965-3.389-3.768-5.413-8.434-5.855-13.494l-.816-9.328c-.315-3.608 2.363-6.8 5.971-7.115l39.473-3.454c2.567-.243 4.822 1.675 5.047 4.233l1.4 16.004v.001c.176 2.015.067 4.043-.322 6.027-.777 3.949-2.655 7.601-5.431 10.56-.026.028-.054.055-.081.081-.922.877-4.489 3.77-11.67 4.183-.376.013-.957.028-1.73.028zm13.193-37.135c-.02 0-.039 0-.059.002l-39.473 3.454c-1.411.124-2.458 1.371-2.335 2.782l.816 9.328c.366 4.188 2.042 8.051 4.846 11.169.242.269.491.528.748.78 2.369 2.318 5.514 3.862 9.095 4.465 4.474.753 8.291 1.017 10.706 1.105l.317.012c1.907.064 3.214.031 3.687.013 5.788-.333 8.491-2.521 9.063-3.05 2.238-2.402 3.752-5.357 4.381-8.549.316-1.616.405-3.268.263-4.908l-1.4-16.003c-.03-.342-.318-.6-.655-.6z" fill="#3762cc"/><path d="m120.436 120.079h-15.923c-1.649 0-2.986-1.337-2.986-2.986 0-1.649 1.337-2.986 2.986-2.986h15.923c1.649 0 2.986 1.337 2.986 2.986 0 1.649-1.337 2.986-2.986 2.986z" fill="#a4c9ff"/><path d="m120.437 122.079h-15.924c-2.749 0-4.985-2.236-4.985-4.985s2.236-4.986 4.985-4.986h15.924c2.749 0 4.985 2.237 4.985 4.986s-2.236 4.985-4.985 4.985zm-15.924-5.972c-.543 0-.985.442-.985.986 0 .543.442.985.985.985h15.924c.543 0 .985-.442.985-.985 0-.544-.442-.986-.985-.986z" fill="#3762cc"/><path d="m132.288 128.426c-.502 0-1.003-.191-1.386-.574-.766-.766-.766-2.007 0-2.773l13.404-13.404c.766-.766 2.007-.766 2.773 0s.766 2.007 0 2.773l-13.404 13.404c-.384.382-.885.574-1.387.574z" fill="#a4c9ff"/><path d="m144.054 128.426c-.502 0-1.003-.191-1.386-.574-.766-.766-.766-2.007 0-2.773l13.404-13.404c.766-.766 2.007-.766 2.773 0s.766 2.007 0 2.773l-13.404 13.404c-.384.382-.885.574-1.387.574z" fill="#a4c9ff"/><path d="m67.674 128.426c-.502 0-1.003-.191-1.386-.574-.766-.766-.766-2.007 0-2.773l13.404-13.404c.766-.766 2.007-.766 2.773 0s.766 2.007 0 2.773l-13.404 13.404c-.383.382-.885.574-1.387.574z" fill="#a4c9ff"/><path d="m79.44 128.426c-.502 0-1.003-.191-1.386-.574-.766-.766-.766-2.007 0-2.773l13.404-13.404c.766-.766 2.007-.766 2.773 0s.766 2.007 0 2.773l-13.404 13.404c-.383.382-.885.574-1.387.574z" fill="#a4c9ff"/><path d="m196.437 164.913 8.839 17.909c.874 1.771 2.563 2.998 4.518 3.282l19.764 2.872c4.921.715 6.886 6.763 3.325 10.234l-14.301 13.94c-1.414 1.378-2.059 3.364-1.726 5.311l3.376 19.684c.841 4.901-4.304 8.639-8.706 6.325l-17.677-9.294c-1.748-.919-3.836-.919-5.584 0l-17.677 9.294c-4.402 2.314-9.546-1.424-8.706-6.325l3.376-19.684c.334-1.946-.311-3.932-1.726-5.311l-14.301-13.94c-3.561-3.471-1.596-9.519 3.325-10.234l19.764-2.872c1.954-.284 3.644-1.511 4.518-3.282l8.839-17.909c2.2-4.459 8.559-4.459 10.76 0z" fill="#ffea92"/><path d="m167.787 247.169c-1.651 0-3.291-.518-4.693-1.536-2.482-1.804-3.702-4.802-3.184-7.825l3.376-19.684c.224-1.298-.207-2.622-1.15-3.542l-14.301-13.938c-2.197-2.143-2.973-5.285-2.024-8.202s3.423-5.003 6.458-5.444l19.763-2.872c1.304-.189 2.431-1.007 3.014-2.188l8.837-17.908c1.358-2.751 4.107-4.46 7.175-4.46h.001c3.067.001 5.815 1.709 7.173 4.46l8.839 17.909c.582 1.181 1.708 1.998 3.012 2.188l19.764 2.872c3.035.441 5.51 2.527 6.458 5.444s.173 6.06-2.023 8.201l-14.303 13.94c-.942.919-1.373 2.243-1.15 3.541l3.377 19.684c.519 3.023-.701 6.021-3.183 7.824s-5.712 2.037-8.426.609l-17.677-9.294c-1.166-.613-2.557-.613-3.723 0l-17.678 9.294c-1.182.619-2.46.927-3.732.927zm23.27-14.682c1.278 0 2.558.307 3.723.919l17.677 9.294c1.379.725 2.953.611 4.213-.304 1.26-.916 1.854-2.378 1.591-3.913l-3.376-19.684c-.445-2.595.415-5.242 2.301-7.081l14.303-13.94c1.114-1.087 1.492-2.62 1.011-4.101-.48-1.48-1.688-2.498-3.229-2.722l-19.765-2.872c-2.605-.379-4.857-2.016-6.022-4.376l-8.84-17.91c-.688-1.396-2.029-2.229-3.586-2.229-1.558 0-2.898.834-3.588 2.23l-8.837 17.908c-1.166 2.362-3.418 3.998-6.024 4.377l-19.764 2.872c-1.541.224-2.748 1.241-3.229 2.722-.481 1.48-.104 3.014 1.012 4.102l14.301 13.938c1.887 1.84 2.747 4.487 2.302 7.082l-3.376 19.684c-.264 1.535.331 2.998 1.591 3.913 1.259.913 2.832 1.028 4.212.304l17.678-9.294c1.163-.612 2.442-.919 3.721-.919z" fill="#3762cc"/></svg>