<svg id="Capa_1" enable-background="new 0 0 510 510" height="512" viewBox="0 0 510 510" width="512" xmlns="http://www.w3.org/2000/svg" xmlns:xlink="http://www.w3.org/1999/xlink"><linearGradient id="SVGID_1_" gradientUnits="userSpaceOnUse" x1="205.413" x2="286.183" y1="355.296" y2="531.585"><stop offset="0" stop-color="#ffdecf"/><stop offset="1" stop-color="#faa68e"/></linearGradient><linearGradient id="lg1"><stop offset="0" stop-color="#faa68e" stop-opacity="0"/><stop offset="1" stop-color="#faa68e"/></linearGradient><linearGradient id="SVGID_2_" gradientUnits="userSpaceOnUse" x1="446.904" x2="385.924" xlink:href="#lg1" y1="510.606" y2="449.625"/><linearGradient id="lg2"><stop offset="0" stop-color="#ffdecf"/><stop offset=".3753" stop-color="#ffdccd"/><stop offset=".5809" stop-color="#fed5c5"/><stop offset=".7453" stop-color="#fdc9b7"/><stop offset=".8871" stop-color="#fcb9a4"/><stop offset="1" stop-color="#faa68e"/></linearGradient><radialGradient id="SVGID_3_" cx="150.195" cy="188.923" gradientUnits="userSpaceOnUse" r="42.994" xlink:href="#lg2"/><radialGradient id="SVGID_4_" cx="359.424" cy="188.923" gradientUnits="userSpaceOnUse" r="42.994" xlink:href="#lg2"/><linearGradient id="lg3"><stop offset="0" stop-color="#f8f6fb"/><stop offset="1" stop-color="#efdcfb"/></linearGradient><linearGradient id="SVGID_5_" gradientUnits="userSpaceOnUse" x1="236.45" x2="259.128" xlink:href="#lg3" y1="324.763" y2="500.139"/><linearGradient id="SVGID_6_" gradientUnits="userSpaceOnUse" x1="362.974" x2="192.638" y1="471.453" y2="290.534"><stop offset="0" stop-color="#efdcfb" stop-opacity="0"/><stop offset=".4856" stop-color="#baaad6" stop-opacity=".486"/><stop offset="1" stop-color="#8679b2"/></linearGradient><linearGradient id="lg4"><stop offset="0" stop-color="#ff7044"/><stop offset="1" stop-color="#f82814"/></linearGradient><linearGradient id="SVGID_7_" gradientUnits="userSpaceOnUse" x1="250.911" x2="268.717" xlink:href="#lg4" y1="412.597" y2="441.155"/><linearGradient id="SVGID_8_" gradientUnits="userSpaceOnUse" x1="245.107" x2="269.633" xlink:href="#lg4" y1="469.135" y2="486.942"/><linearGradient id="lg5"><stop offset="0" stop-color="#f82814" stop-opacity="0"/><stop offset="1" stop-color="#c0272d"/></linearGradient><linearGradient id="SVGID_9_" gradientUnits="userSpaceOnUse" x1="326.455" x2="200.803" xlink:href="#lg5" y1="483.96" y2="414.078"/><linearGradient id="SVGID_10_" gradientUnits="userSpaceOnUse" x1="162.219" x2="162.219" xlink:href="#lg4" y1="417.273" y2="530.186"/><linearGradient id="SVGID_11_" gradientUnits="userSpaceOnUse" x1="187.47" x2="187.47" xlink:href="#lg5" y1="442.139" y2="524.772"/><linearGradient id="SVGID_12_" gradientUnits="userSpaceOnUse" x1="218.778" x2="177.454" xlink:href="#lg4" y1="432.087" y2="455.269"/><linearGradient id="SVGID_13_" gradientTransform="matrix(-1 0 0 1 -725.107 0)" gradientUnits="userSpaceOnUse" x1="-1072.888" x2="-1072.888" xlink:href="#lg4" y1="417.273" y2="530.186"/><linearGradient id="SVGID_14_" gradientTransform="matrix(-1 0 0 1 -725.107 0)" gradientUnits="userSpaceOnUse" x1="-1047.637" x2="-1047.637" xlink:href="#lg5" y1="442.139" y2="524.772"/><linearGradient id="SVGID_15_" gradientTransform="matrix(-1 0 0 1 -725.107 0)" gradientUnits="userSpaceOnUse" x1="-1016.329" x2="-1057.653" xlink:href="#lg4" y1="432.087" y2="455.269"/><radialGradient id="SVGID_16_" cx="219.037" cy="142.529" gradientUnits="userSpaceOnUse" r="183.244" xlink:href="#lg2"/><linearGradient id="SVGID_17_" gradientUnits="userSpaceOnUse" x1="254.998" x2="254.998" xlink:href="#lg1" y1="203.272" y2="280.594"/><linearGradient id="SVGID_18_" gradientUnits="userSpaceOnUse" x1="273.61" x2="193.985" xlink:href="#lg5" y1="457.669" y2="396.187"/><linearGradient id="SVGID_19_" gradientUnits="userSpaceOnUse" x1="224.053" x2="198.519" xlink:href="#lg3" y1="379.914" y2="411.495"/><linearGradient id="SVGID_20_" gradientTransform="matrix(-1 0 0 1 -625.421 0)" gradientUnits="userSpaceOnUse" x1="-911.368" x2="-936.902" xlink:href="#lg3" y1="379.914" y2="411.495"/><linearGradient id="SVGID_21_" gradientUnits="userSpaceOnUse" x1="410.819" x2="384.613" xlink:href="#lg5" y1="524.102" y2="463.628"/><linearGradient id="SVGID_22_" gradientUnits="userSpaceOnUse" x1="376.489" x2="376.489" y1="331.076" y2="436.862"><stop offset="0" stop-color="#ffd945"/><stop offset=".3043" stop-color="#ffcd3e"/><stop offset=".8558" stop-color="#ffad2b"/><stop offset="1" stop-color="#ffa325"/></linearGradient><linearGradient id="lg6"><stop offset="0" stop-color="#fbb27e" stop-opacity="0"/><stop offset="1" stop-color="#ff7044"/></linearGradient><linearGradient id="SVGID_23_" gradientUnits="userSpaceOnUse" x1="369.244" x2="395.668" xlink:href="#lg6" y1="396.096" y2="329.436"/><linearGradient id="SVGID_24_" gradientUnits="userSpaceOnUse" x1="429.366" x2="332.078" xlink:href="#lg6" y1="396.988" y2="378.071"/><linearGradient id="SVGID_25_" gradientUnits="userSpaceOnUse" x1="389.333" x2="383.928" xlink:href="#lg6" y1="437.807" y2="342.77"/><linearGradient id="SVGID_26_" gradientUnits="userSpaceOnUse" x1="358.323" x2="401.112" xlink:href="#lg6" y1="423.044" y2="366.743"/><linearGradient id="SVGID_27_" gradientUnits="userSpaceOnUse" x1="392.981" x2="334.428" xlink:href="#lg6" y1="414.228" y2="387.654"/><linearGradient id="lg7"><stop offset="0" stop-color="#9b62cd"/><stop offset=".3003" stop-color="#985dcb"/><stop offset=".6716" stop-color="#8f4ec7"/><stop offset="1" stop-color="#833ac1"/></linearGradient><linearGradient id="SVGID_28_" gradientTransform="matrix(-1 -.003 -.003 1 -2681.225 -2.601)" gradientUnits="userSpaceOnUse" x1="-2805.631" x2="-2714.596" xlink:href="#lg7" y1="227.29" y2="227.29"/><linearGradient id="SVGID_29_" gradientTransform="matrix(-1 -.003 -.003 1 -2681.225 -2.601)" gradientUnits="userSpaceOnUse" x1="-3153.402" x2="-3062.367" xlink:href="#lg7" y1="245.825" y2="245.825"/><linearGradient id="SVGID_30_" gradientTransform="matrix(-1 -.003 -.003 1 -2681.225 -2.601)" gradientUnits="userSpaceOnUse" x1="-2793.487" x2="-2729.11" xlink:href="#lg7" y1="52.413" y2="52.413"/><linearGradient id="SVGID_31_" gradientTransform="matrix(-1 -.003 -.003 1 -2681.225 -2.601)" gradientUnits="userSpaceOnUse" x1="-3120.049" x2="-3055.673" xlink:href="#lg7" y1="131.876" y2="131.876"/><linearGradient id="SVGID_32_" gradientTransform="matrix(-1 -.003 -.003 1 -2681.225 -2.601)" gradientUnits="userSpaceOnUse" x1="-2826.665" x2="-2762.288" xlink:href="#lg7" y1="321.623" y2="321.623"/><linearGradient id="SVGID_33_" gradientTransform="matrix(-1 -.003 -.003 1 -2681.225 -2.601)" gradientUnits="userSpaceOnUse" x1="-3158.792" x2="-3094.416" xlink:href="#lg7" y1="54.738" y2="54.738"/><linearGradient id="lg8"><stop offset="0" stop-color="#8a7889"/><stop offset="1" stop-color="#6e566e"/></linearGradient><linearGradient id="SVGID_34_" gradientUnits="userSpaceOnUse" x1="109.526" x2="368.037" xlink:href="#lg8" y1="81.64" y2="81.64"/><linearGradient id="SVGID_35_" gradientUnits="userSpaceOnUse" x1="255" x2="255" xlink:href="#lg8" y1="155.426" y2="182.121"/><linearGradient id="SVGID_36_" gradientUnits="userSpaceOnUse" x1="184.722" x2="217.806" xlink:href="#lg8" y1="177.767" y2="260.852"/><linearGradient id="SVGID_37_" gradientUnits="userSpaceOnUse" x1="226.138" x2="157.34" xlink:href="#lg8" y1="242.967" y2="147.1"/><linearGradient id="SVGID_38_" gradientUnits="userSpaceOnUse" x1="167.589" x2="211.125" xlink:href="#lg8" y1="170.58" y2="214.116"/><linearGradient id="SVGID_39_" gradientUnits="userSpaceOnUse" x1="292.742" x2="381.436" xlink:href="#lg8" y1="154.163" y2="242.857"/><linearGradient id="SVGID_40_" gradientTransform="matrix(-1 0 0 1 -2920.819 0)" gradientUnits="userSpaceOnUse" x1="-3204.681" x2="-3273.48" xlink:href="#lg8" y1="242.967" y2="147.1"/><linearGradient id="SVGID_41_" gradientUnits="userSpaceOnUse" x1="303.016" x2="351.229" xlink:href="#lg8" y1="161.623" y2="220.832"/><linearGradient id="SVGID_42_" gradientUnits="userSpaceOnUse" x1="189.439" x2="206.573" y1="62.491" y2="142.619"><stop offset="0" stop-color="#6e566e" stop-opacity="0"/><stop offset=".3782" stop-color="#6a516a" stop-opacity=".378"/><stop offset=".8244" stop-color="#5f435d" stop-opacity=".824"/><stop offset="1" stop-color="#593b56"/></linearGradient><g><path d="m347.715 365.736h-13.995c-23.159-.095-42.114-18.286-43.795-41.341-.039-.503-.065-1.006-.079-1.509-.026-.609-.039-1.218-.039-1.827v-20.031h-34.807-34.808v20.031c0 .609-.013 1.218-.039 1.827-.013.503-.039 1.006-.079 1.509-1.681 23.055-20.635 41.247-43.795 41.341h-13.995c-39.868 0-72.187 32.751-72.187 73.151v63.865c0 4.001 3.201 7.245 7.149 7.245h157.754 157.753c3.948 0 7.149-3.244 7.149-7.245v-63.865c0-40.4-32.319-73.151-72.187-73.151z" fill="url(#SVGID_1_)"/><path d="m419.902 502.848v-63.023c0-39.868-32.319-72.187-72.187-72.187h-13.995c-10.216-.041-19.612-3.561-27.07-9.432-11.927 6.472-15.32 23.484-4.607 33.927l16.025 16.02c3.418 4.623 4.858 10.479 3.869 16.242l-3.252 18.96c-1.454 8.48 2.15 15.969 8.028 20.472l46.17 46.17h39.869c3.949 0 7.15-3.201 7.15-7.149z" fill="url(#SVGID_2_)"/><g><circle cx="150.384" cy="207.554" fill="url(#SVGID_3_)" r="27.852"/><circle cx="359.612" cy="207.554" fill="url(#SVGID_4_)" r="27.852"/></g><path d="m349.981 364.159h-14.337c-8.293-.033-16.055-2.308-22.724-6.24l-48.81 48.81c-5.031 5.031-13.189 5.031-18.22 0l-48.81-48.81c-6.668 3.932-14.431 6.207-22.724 6.24h-14.337c-40.842 0-73.951 33.109-73.951 73.951v64.563c0 4.045 3.279 7.324 7.324 7.324h323.216c4.045 0 7.324-3.279 7.324-7.324v-64.563c0-40.842-33.109-73.951-73.951-73.951z" fill="url(#SVGID_5_)"/><path d="m423.935 438.106v64.566c0 4.042-3.286 7.327-7.327 7.327h-132.167l-80.421-80.421c-1.693-.988-3.034-2.61-3.618-4.667l-17.195-60.041c-.151-.534-.212-1.058-.181-1.582 5.04-1.008 9.767-2.842 14.05-5.372l48.813 48.813c4.425 4.425 11.279 4.959 16.278 1.592.685-.454 1.34-.988 1.945-1.592l48.813-48.813c6.662 3.931 14.423 6.209 22.718 6.239h14.342c40.84.001 73.95 33.111 73.95 73.951z" fill="url(#SVGID_6_)"/><g><g><path d="m268.775 438.004h-27.55l-6.383-27.459h40.316z" fill="url(#SVGID_7_)"/><path d="m268.775 438.004h-27.55l-6.383 71.993h40.316z" fill="url(#SVGID_8_)"/></g><path d="m234.842 410.545 6.383 27.459-2.344 26.436 35.374 35.374-5.48-61.81 6.383-27.459z" fill="url(#SVGID_9_)"/></g><g><g><path d="m171.75 362.636h-14.487c-41.269 0-74.723 33.455-74.723 74.723v65.237c0 4.087 3.313 7.401 7.401 7.401h151.956z" fill="url(#SVGID_10_)"/><path d="m133.043 509.997h108.854l-51.335-107.843h-57.519z" fill="url(#SVGID_11_)"/><path d="m255 509.997-66.018-151.687-15.635 1.525c-2.781.271-4.82 2.738-4.564 5.52l6.286 68.244c.184 1.999 1.594 3.673 3.534 4.193l10.708 2.873c3.246.871 4.613 4.724 2.642 7.446l-4.181 5.774c-1.346 1.858-1.187 4.409.378 6.086l46.692 50.025z" fill="url(#SVGID_12_)"/></g><g><path d="m338.25 362.636h14.487c41.268 0 74.723 33.455 74.723 74.723v65.237c0 4.087-3.313 7.401-7.401 7.401h-151.956z" fill="url(#SVGID_13_)"/><path d="m376.957 509.997h-108.854l51.335-107.843h57.519z" fill="url(#SVGID_14_)"/><path d="m255 509.997 66.018-151.687 15.635 1.525c2.781.271 4.82 2.738 4.564 5.52l-6.286 68.244c-.184 1.999-1.594 3.673-3.534 4.193l-10.708 2.873c-3.246.871-4.613 4.724-2.642 7.446l4.181 5.774c1.346 1.858 1.187 4.409-.378 6.086l-46.692 50.025z" fill="url(#SVGID_15_)"/></g></g><path d="m254.998 332.143c-57.777 0-104.614-46.838-104.614-104.615v-110.062c0-57.777 46.837-104.614 104.614-104.614 57.777 0 104.614 46.838 104.614 104.614v110.063c0 57.777-46.837 104.614-104.614 104.614z" fill="url(#SVGID_16_)"/><path d="m260.941 257.285h-11.886c-9.525 0-16.946-8.262-15.927-17.733l6.214-57.768h31.312l6.214 57.768c1.019 9.47-6.402 17.733-15.927 17.733z" fill="url(#SVGID_17_)"/><path d="m190.243 361.207c-2.319.884-4.73 1.585-7.217 2.082-.03.524.03 1.048.181 1.582l17.195 60.041c.584 2.056 1.925 3.679 3.618 4.667l28.295 28.295z" fill="url(#SVGID_18_)"/><g><path d="m206.633 352.761 48.367 57.741-43.692 19.493c-4.426 1.975-9.576-.425-10.91-5.085l-17.193-60.038c-.75-2.619.786-5.327 3.409-6.062 3.601-1.01 8.645-2.966 13.138-6.657 2.085-1.713 5.149-1.46 6.881.608z" fill="url(#SVGID_19_)"/><path d="m303.367 352.761-48.367 57.741 43.692 19.493c4.426 1.975 9.576-.425 10.91-5.085l17.193-60.038c.75-2.619-.786-5.327-3.409-6.062-3.601-1.01-8.645-2.966-13.138-6.657-2.085-1.713-5.149-1.46-6.881.608z" fill="url(#SVGID_20_)"/></g><path d="m352.736 362.636h-14.486l-.723 1.52h-1.884c-8.295-.03-16.056-2.308-22.718-6.239l-17.238 17.238c-.517 5.938 1.412 12.157 6.357 16.977l15.423 15.385c.191.207.385.412.587.615 3.429 4.626 4.874 10.491 3.884 16.262l-3.252 18.96c-1.376 8.02 1.773 15.156 7.091 19.716l46.929 46.93h43.901c.018 0 .035-.003.053-.003h3.398c4.087 0 7.401-3.313 7.401-7.401v-65.236c.001-41.269-33.454-74.724-74.723-74.724z" fill="url(#SVGID_21_)"/><g><path d="m395.571 324.181 8.513 17.25c3.1 6.28 9.091 10.633 16.022 11.641l19.037 2.766c17.453 2.536 24.423 23.985 11.793 36.296l-13.775 13.427c-5.015 4.889-7.304 11.932-6.12 18.835l3.252 18.96c2.981 17.383-15.264 30.639-30.875 22.432l-17.027-8.952c-6.199-3.259-13.605-3.259-19.804 0l-17.027 8.952c-15.611 8.207-33.856-5.049-30.875-22.432l3.252-18.96c1.184-6.903-1.105-13.946-6.12-18.835l-13.775-13.427c-12.629-12.311-5.66-33.759 11.793-36.296l19.037-2.766c6.931-1.007 12.922-5.36 16.022-11.641l8.513-17.25c7.806-15.816 30.359-15.816 38.164 0z" fill="url(#SVGID_22_)"/><path d="m340.503 350.403c-2.319 1.349-4.9 2.271-7.63 2.668l-19.037 2.766c-17.453 2.536-24.423 23.985-11.793 36.296l13.775 13.427c5.015 4.889 7.304 11.932 6.12 18.835l-3.252 18.96c-2.981 17.383 15.264 30.639 30.875 22.432l17.027-8.952c6.199-3.259 13.605-3.259 19.804 0l17.027 8.952c7.4 3.89 15.388 2.953 21.43-.956z" fill="url(#SVGID_23_)"/><path d="m450.933 392.133-13.773 13.431c-3.135 3.054-5.198 6.936-6.017 11.107-.505 2.513-.55 5.126-.099 7.72l3.252 18.962c1.567 9.143-2.739 17.143-9.441 21.475-6.044 3.91-14.035 4.846-21.439.955l-17.025-8.945c-3.099-1.63-6.495-2.441-9.9-2.441v-55.057l.126.036-.054-.054-.072-.108v-86.893c7.585 0 15.179 3.955 19.079 11.864l8.513 17.242c1.874 3.81 4.819 6.909 8.396 8.981 2.315 1.351 4.9 2.27 7.63 2.666l19.034 2.766c10.089 1.459 16.674 9.242 17.989 17.926.971 6.341-.866 13.17-6.199 18.367z" fill="url(#SVGID_24_)"/><g><path d="m321.84 416.675c.496 2.512.542 5.126.097 7.72l-3.252 18.96c-2.981 17.383 15.264 30.639 30.875 22.432l17.027-8.952c6.199-3.259 13.605-3.259 19.804 0l17.027 8.952c15.611 8.207 33.856-5.049 30.875-22.432l-3.252-18.96c-1.184-6.903 1.105-13.946 6.12-18.835l13.775-13.427c5.331-5.197 7.159-12.02 6.191-18.363z" fill="url(#SVGID_25_)"/></g><path d="m431.041 424.395c-.445-2.594-.399-5.208.097-7.72l-135.287-42.905c-.968 6.343.859 13.167 6.191 18.363l13.775 13.427c5.015 4.889 7.304 11.932 6.12 18.835l-3.252 18.96c-2.981 17.383 15.264 30.639 30.875 22.432l17.027-8.952c6.199-3.259 13.605-3.259 19.804 0l17.027 8.952c15.611 8.207 33.856-5.049 30.875-22.432z" fill="url(#SVGID_26_)"/><path d="m439.143 355.837-19.037-2.766c-2.726-.396-5.303-1.317-7.62-2.662l-84.271 114.479c6.032 3.862 13.981 4.77 21.346.898l17.027-8.952c6.199-3.259 13.605-3.259 19.804 0l17.027 8.952c15.611 8.207 33.856-5.049 30.875-22.432l-3.252-18.96c-1.184-6.903 1.105-13.946 6.12-18.835l13.775-13.427c12.628-12.31 5.659-33.759-11.794-36.295z" fill="url(#SVGID_27_)"/></g><g><path d="m35.164 238.255c15.275 10.025 28.293 23.205 38.135 38.608 2.213 3.464 7.346 3.471 9.569.013 9.884-15.375 22.938-28.519 38.241-38.501 3.397-2.216 3.404-7.278.013-9.503-15.275-10.025-28.293-23.205-38.134-38.608-2.213-3.464-7.346-3.471-9.569-.013-9.884 15.375-22.939 28.519-38.242 38.501-3.397 2.215-3.403 7.278-.013 9.503z" fill="url(#SVGID_28_)"/><path d="m382.874 257.908c15.275 10.025 28.293 23.205 38.134 38.608 2.213 3.464 7.346 3.471 9.569.013 9.884-15.375 22.938-28.519 38.241-38.501 3.397-2.216 3.404-7.278.013-9.503-15.275-10.025-28.293-23.205-38.134-38.608-2.213-3.464-7.346-3.471-9.569-.013-9.884 15.375-22.939 28.519-38.242 38.501-3.396 2.215-3.403 7.278-.012 9.503z" fill="url(#SVGID_29_)"/><path d="m49.498 62.008c10.802 7.089 20.008 16.41 26.967 27.302 1.565 2.449 5.195 2.454 6.767.009 6.989-10.873 16.221-20.168 27.043-27.227 2.402-1.567 2.407-5.147.009-6.72-10.802-7.089-20.008-16.41-26.967-27.302-1.565-2.449-5.195-2.454-6.767-.01-6.99 10.873-16.222 20.168-27.043 27.227-2.402 1.568-2.407 5.148-.009 6.721z" fill="url(#SVGID_30_)"/><path d="m375.803 142.521c10.802 7.089 20.008 16.41 26.967 27.302 1.565 2.449 5.195 2.454 6.767.009 6.989-10.873 16.221-20.168 27.043-27.227 2.402-1.567 2.407-5.147.009-6.72-10.802-7.089-20.008-16.41-26.967-27.302-1.565-2.449-5.195-2.454-6.767-.01-6.99 10.873-16.222 20.168-27.043 27.227-2.402 1.567-2.407 5.147-.009 6.721z" fill="url(#SVGID_31_)"/><path d="m81.809 331.323c10.802 7.089 20.008 16.41 26.967 27.302 1.565 2.449 5.195 2.454 6.767.009 6.989-10.873 16.221-20.168 27.043-27.227 2.402-1.567 2.407-5.147.009-6.72-10.802-7.089-20.008-16.41-26.967-27.302-1.565-2.449-5.195-2.454-6.767-.01-6.99 10.873-16.222 20.168-27.043 27.227-2.401 1.568-2.406 5.148-.009 6.721z" fill="url(#SVGID_32_)"/><path d="m414.793 65.508c10.802 7.089 20.008 16.41 26.967 27.302 1.565 2.449 5.195 2.454 6.767.009 6.989-10.873 16.221-20.168 27.043-27.227 2.402-1.567 2.407-5.147.009-6.72-10.802-7.089-20.008-16.41-26.967-27.302-1.565-2.449-5.195-2.454-6.767-.01-6.99 10.873-16.222 20.168-27.043 27.227-2.401 1.567-2.406 5.147-.009 6.721z" fill="url(#SVGID_33_)"/></g><path d="m334.927 33.11c-20.45-20.461-48.712-33.11-79.927-33.11-3.225 0-6.42.131-9.575.413-25.225 2.107-48.091 12.496-65.87 28.457-12.803-1.657-24.66-6.26-34.838-13.108-6.433-4.328-15.187-2.719-19.8 3.513-9.677 13.075-15.391 29.165-15.391 46.575 0 26.014 12.756 49.079 32.438 63.534v33.897h16.782v-24.381c9.656 4.011 20.269 6.239 31.416 6.239 29.219 0 54.81-15.28 68.951-38.159 20.329 11.631 46.847 18.676 75.845 18.676 5.533 0 10.976-.262 16.298-.756v38.381h16.782v-50.244c-.001-31.215-12.651-59.477-33.111-79.927z" fill="url(#SVGID_34_)"/><g><path d="m235.202 147.664h39.596v39.596h-39.596z" fill="url(#SVGID_35_)"/><g><g><path d="m219.905 237.633h-76.29c-6.815 0-12.511-5.186-13.149-11.971l-5.975-63.555c-.728-7.748 5.367-14.443 13.149-14.443h100.038c8.744 0 15.074 8.343 12.719 16.764l-17.773 63.555c-1.596 5.706-6.795 9.65-12.719 9.65z" fill="url(#SVGID_36_)"/><path d="m213.228 228.556h-60.493c-5.404 0-9.92-4.139-10.426-9.555l-4.738-50.73c-.578-6.185 4.255-11.529 10.426-11.529h79.323c6.933 0 11.952 6.66 10.085 13.381l-14.093 50.73c-1.263 4.554-5.386 7.703-10.084 7.703z" fill="url(#SVGID_37_)"/><path d="m209.213 222.916h-50.992c-4.555 0-8.362-3.489-8.789-8.054l-3.994-42.763c-.487-5.213 3.587-9.718 8.789-9.718h66.865c5.844 0 10.075 5.614 8.501 11.279l-11.879 42.763c-1.066 3.839-4.541 6.493-8.501 6.493z" fill="url(#SVGID_38_)"/></g><g><path d="m290.095 237.633h76.29c6.815 0 12.511-5.186 13.149-11.971l5.975-63.555c.728-7.748-5.367-14.443-13.149-14.443h-100.038c-8.744 0-15.074 8.343-12.719 16.764l17.773 63.555c1.596 5.706 6.795 9.65 12.719 9.65z" fill="url(#SVGID_39_)"/><path d="m296.772 228.556h60.493c5.404 0 9.92-4.139 10.426-9.555l4.738-50.73c.578-6.185-4.255-11.529-10.426-11.529h-79.323c-6.933 0-11.952 6.66-10.085 13.381l14.093 50.73c1.263 4.554 5.386 7.703 10.084 7.703z" fill="url(#SVGID_40_)"/><path d="m300.787 222.916h50.992c4.555 0 8.362-3.489 8.789-8.054l3.994-42.763c.487-5.213-3.587-9.718-8.789-9.718h-66.865c-5.844 0-10.075 5.614-8.501 11.279l11.879 42.763c1.066 3.839 4.541 6.493 8.501 6.493z" fill="url(#SVGID_41_)"/></g></g></g><g><path d="m245.338 8.063c-14.426 13.325-33.826 21.502-55.18 21.502-16.86 0-32.503-5.098-45.441-13.802-6.433-4.328-15.187-2.719-19.8 3.513-9.677 13.075-15.391 29.165-15.391 46.574 0 43.79 36.1 79.289 80.632 79.289s80.632-35.499 80.632-79.289c.001-22.792-9.794-43.323-25.452-57.787z" fill="url(#SVGID_42_)"/></g></g></svg>