<svg id="Layer_1" enable-background="new 0 0 256 256" height="512" viewBox="0 0 256 256" width="512" xmlns="http://www.w3.org/2000/svg"><path d="m150.655 187.034h-10.155c-.022-.001-.043-.004-.065-.004l-.004.004h-66.799c-17.647 0-31.953 14.306-31.953 31.953v16.029 4.551 8.429h140.928v-8.429-4.551-16.029c.001-17.647-14.305-31.953-31.952-31.953z" fill="#e0ebfc"/><path d="m112.151 180.642c-10.27 0-19.941-2.517-28.438-6.945v3.444 8.7c0 .449.064.89.157 1.325.003 0 .005 0 .008-.001.093.435.232.856.409 1.261.024.053.045.107.071.159.078.166.164.327.256.485.091.154.191.302.295.448.056.079.105.163.165.239l4.038 5.134c4.022 5.113 9.599 8.816 15.911 10.294.847.198 1.726.37 2.634.506 10.251 1.537 20.504-2.829 26.878-11.051l5.886-7.595c.081-.407.135-.82.135-1.239v-12.092c-8.488 4.418-18.148 6.928-28.405 6.928z" fill="#f9cfcf"/><path d="m182.608 235.015v-16.029c0-17.647-14.306-31.953-31.953-31.953h-10.155c-.022-.001-.043-.004-.065-.004l-.004.004h-2.876l-11.866 29.057v31.905h56.918v-8.429-4.551z" fill="#6bdddd"/><path d="m86.727 187.034h-13.095c-17.647 0-31.953 14.306-31.953 31.953v16.029 4.551 8.429h56.914v-31.905z" fill="#6bdddd"/><path d="m182.607 249.996h-56.918c-1.104 0-2-.896-2-2v-31.905c0-.26.051-.516.148-.756l11.866-29.057c.308-.753 1.039-1.244 1.852-1.244h2.74c.084-.005.17-.007.277 0h10.082c18.722 0 33.952 15.23 33.952 33.952v29.01c.001 1.105-.894 2-1.999 2zm-54.918-4h52.918v-27.01c0-16.516-13.437-29.952-29.952-29.952h-10.154c-.021-.001-.046-.001-.069 0h-1.532l-11.21 27.449v29.513z" fill="#3762cc"/><path d="m98.594 249.996h-56.914c-1.104 0-2-.896-2-2v-29.01c0-18.722 15.231-33.952 33.953-33.952h13.095c.813 0 1.544.491 1.852 1.244l11.866 29.057c.098.24.148.496.148.756v31.905c0 1.105-.896 2-2 2zm-54.914-4h52.914v-29.513l-11.21-27.449h-11.751c-16.517 0-29.953 13.437-29.953 29.952z" fill="#3762cc"/><path d="m140.558 179.682-14.869 36.409 12.914 10.004c1.173.909 2.888.474 3.486-.884l16.393-37.208-2.363-5.545c-.717-1.683-2.37-2.775-4.199-2.775h-11.362z" fill="#6bdddd"/><path d="m139.991 228.575c-.937 0-1.852-.31-2.613-.899l-12.913-10.004c-.71-.55-.967-1.506-.627-2.337l14.868-36.409c.308-.753 1.039-1.244 1.852-1.244h11.363c2.636 0 5.006 1.566 6.039 3.991l2.363 5.545c.217.509.213 1.085-.01 1.591l-16.394 37.209c-.536 1.215-1.581 2.099-2.868 2.424-.351.089-.706.133-1.06.133zm-11.876-13.135 11.713 9.073c.073.056.154.069.242.051.089-.022.152-.077.189-.16l16.044-36.416-2.023-4.747c-.403-.947-1.33-1.56-2.359-1.56h-10.02z" fill="#3762cc"/><path d="m83.725 179.682 14.869 36.409-12.914 10.004c-1.173.909-2.888.474-3.486-.884l-16.394-37.209 2.363-5.545c.717-1.683 2.37-2.775 4.199-2.775z" fill="#6bdddd"/><path d="m84.291 228.575c-.354 0-.71-.044-1.063-.134-1.286-.326-2.331-1.21-2.865-2.425l-16.393-37.207c-.223-.506-.227-1.082-.01-1.591l2.363-5.545c1.033-2.425 3.403-3.991 6.039-3.991h11.362c.813 0 1.544.491 1.852 1.244l14.869 36.409c.34.831.083 1.787-.627 2.337l-12.914 10.004c-.761.59-1.676.899-2.613.899zm-16.312-40.587 16.044 36.416c.037.084.101.138.188.16.089.021.171.006.243-.051l11.713-9.073-13.787-33.759h-10.018c-1.029 0-1.956.612-2.359 1.56z" fill="#3762cc"/><path d="m173.768 96.881c-.131 0-.257.017-.387.019v-5.733c0-33.512-27.414-60.678-61.23-60.678-33.816 0-61.23 27.167-61.23 60.678v5.733c-.13-.003-.256-.019-.387-.019-10.317 0-18.68 8.288-18.68 18.512s8.364 18.512 18.68 18.512c.678 0 1.345-.04 2.004-.11 6.318 26.844 30.6 46.847 59.613 46.847 29.012 0 53.294-20.003 59.613-46.847.659.07 1.327.11 2.004.11 10.317 0 18.68-8.288 18.68-18.512.001-10.224-8.363-18.512-18.68-18.512z" fill="#f9cfcf"/><g fill="#3762cc"><path d="m112.151 182.642c-28.968 0-53.872-19.134-61.148-46.743-11.651.271-21.148-9.04-21.148-20.506 0-10.772 8.415-19.632 19.067-20.45v-3.775c0-34.562 28.364-62.679 63.229-62.679s63.229 28.117 63.229 62.679v3.775c10.652.818 19.067 9.678 19.067 20.45 0 11.465-9.537 20.77-21.148 20.506-7.276 27.609-32.18 46.743-61.148 46.743zm-59.61-50.847c.917 0 1.73.631 1.945 1.542 6.278 26.675 29.991 45.305 57.665 45.305s51.387-18.63 57.665-45.305c.23-.98 1.168-1.636 2.156-1.531.63.066 1.217.099 1.796.099 9.197 0 16.68-7.407 16.68-16.512 0-9.103-7.479-16.508-16.673-16.512-.168.012-.258.017-.35.019-.554.014-1.059-.193-1.443-.569s-.602-.892-.602-1.43v-5.733c0-32.355-26.57-58.679-59.229-58.679s-59.229 26.323-59.229 58.678v5.733c0 .538-.217 1.054-.602 1.43s-.907.582-1.443.569c-.091-.002-.181-.007-.271-.014-.003 0-.007 0-.01 0-9.266 0-16.742 7.405-16.742 16.507 0 9.104 7.482 16.512 16.68 16.512.579 0 1.166-.032 1.796-.099.07-.006.141-.01.211-.01z"/><path d="m112.144 153.904c-1.765 0-3.305-.208-4.708-.636-2.331-.709-4.378-1.904-5.918-3.457-1.949-1.965-3.023-4.439-3.023-6.968 0-1.104.896-2 2-2s2 .896 2 2c0 1.487.645 2.922 1.863 4.151 1.075 1.083 2.542 1.93 4.243 2.447 1.021.311 2.18.462 3.543.462 1.364 0 2.523-.151 3.543-.462 1.702-.519 3.169-1.364 4.242-2.447 1.22-1.229 1.864-2.664 1.864-4.151 0-1.104.896-2 2-2s2 .896 2 2c0 2.528-1.074 5.003-3.023 6.968-1.538 1.552-3.584 2.747-5.918 3.457-1.403.428-2.944.636-4.708.636z"/><path d="m81.862 130.212c-4.076 0-7.392-3.315-7.392-7.391v-12.319c0-4.076 3.316-7.391 7.392-7.391 4.075 0 7.391 3.316 7.391 7.391v12.319c0 4.076-3.316 7.391-7.391 7.391z"/><path d="m142.426 130.212c-4.076 0-7.392-3.315-7.392-7.391v-12.319c0-4.076 3.316-7.391 7.392-7.391 4.075 0 7.391 3.316 7.391 7.391v12.319c0 4.076-3.316 7.391-7.391 7.391z"/><path d="m112.151 182.642c-28.968 0-53.872-19.134-61.148-46.743-11.651.271-21.148-9.04-21.148-20.506 0-10.772 8.415-19.632 19.067-20.45v-3.775c0-34.562 28.364-62.679 63.229-62.679s63.229 28.117 63.229 62.679v3.775c10.652.818 19.067 9.678 19.067 20.45 0 11.465-9.537 20.77-21.148 20.506-7.276 27.609-32.18 46.743-61.148 46.743zm-59.61-50.847c.917 0 1.73.631 1.945 1.542 6.278 26.675 29.991 45.305 57.665 45.305s51.387-18.63 57.665-45.305c.23-.98 1.168-1.636 2.156-1.531.63.066 1.217.099 1.796.099 9.197 0 16.68-7.407 16.68-16.512 0-9.103-7.479-16.508-16.673-16.512-.168.012-.258.017-.35.019-.554.014-1.059-.193-1.443-.569s-.602-.892-.602-1.43v-5.733c0-32.355-26.57-58.679-59.229-58.679s-59.229 26.323-59.229 58.678v5.733c0 .538-.217 1.054-.602 1.43s-.907.582-1.443.569c-.091-.002-.181-.007-.271-.014-.003 0-.007 0-.01 0-9.266 0-16.742 7.405-16.742 16.507 0 9.104 7.482 16.512 16.68 16.512.579 0 1.166-.032 1.796-.099.07-.006.141-.01.211-.01z"/></g><path d="m146.614 20.7c-6.76-3.99-15.441-7.642-25.844-9.095-12.508-4.22-28.631-5.378-49.14.018 0 0-15.22 6.526-37.503 4.572-1.43-.125-2.555 1.209-2.176 2.593 1.013 3.692 3.309 10.548 7.956 18.336.652 1.093.174 2.509-1.007 2.982-4.533 1.814-9.709 3.507-15.482 4.82-1.399.318-2.054 1.932-1.272 3.134 6.823 10.497 36.924 49.349 101.164 35.217 1.145-.252 2.283-.567 3.401-.917 10.734-3.366 19.539-11.123 24.368-21.283l4.69-9.867c5.235-11.012 1.346-24.313-9.155-30.51z" fill="#4671c6"/><path d="m96.426 88.354c-16.922 0-32.392-3.91-46.212-11.709-16.921-9.548-26.439-22.409-29.746-27.496-.723-1.112-.857-2.51-.358-3.739.499-1.23 1.569-2.141 2.863-2.436 5.18-1.178 10.287-2.768 15.184-4.727l1.751-1.124-1.718 1.024c-4.838-8.106-7.193-15.279-8.167-18.833-.351-1.276-.053-2.647.797-3.665.854-1.023 2.146-1.568 3.483-1.447 21.536 1.891 36.392-4.355 36.539-4.418.091-.039.184-.071.279-.097 18.651-4.906 35.509-4.918 50.11-.038 9.265 1.319 18.145 4.457 26.399 9.327 11.242 6.635 15.611 21.17 9.945 33.091l-4.69 9.867c-5.081 10.689-14.403 18.829-25.576 22.333-1.278.4-2.445.715-3.569.962-9.472 2.085-18.587 3.125-27.314 3.125zm-62.474-70.166s-.072.07-.072.071c.92 3.357 3.149 10.14 7.745 17.841.611 1.025.742 2.261.359 3.391-.382 1.128-1.235 2.029-2.342 2.473-5.091 2.036-10.4 3.688-15.782 4.912l-.039.095c7.49 11.522 36.776 48.053 99.06 34.354 1.01-.223 2.067-.508 3.232-.873 10.113-3.171 18.555-10.546 23.159-20.232l4.69-9.867c4.786-10.068 1.111-22.336-8.365-27.929-7.853-4.634-16.299-7.606-25.104-8.837-.124-.017-.245-.046-.363-.085-13.852-4.673-29.952-4.667-47.856.021-1.72.709-16.69 6.562-38.322 4.665z" fill="#3762cc"/><path d="m172.231 45.269c-2.522-3.288-6.817-4.669-10.783-3.468l-3.446 1.044c-.175 2.205-.663 4.409-1.474 6.55.001.001.002.002.003.003-.229.609-.479 1.214-.763 1.811l-4.69 9.867c-.346.728-.717 1.438-1.103 2.141-.021.037-.043.074-.064.112-.377.681-.774 1.347-1.187 2.002-.001.001-.001.002-.002.003 1.244 9.556 6.34 18.379 14.418 24.195l10.239 7.372c.13-.003.256-.02.387-.02 3.236 0 6.278.817 8.932 2.251l1.299-9.526c2.15-15.758-2.087-31.72-11.766-44.337z" fill="#4671c6"/><path d="m182.7 101.132c-.327 0-.654-.08-.951-.24-2.433-1.315-5.192-2.011-7.98-2.011-.161.012-.251.017-.343.019-.423.039-.861-.123-1.214-.376l-10.238-7.372c-8.349-6.011-13.901-15.326-15.233-25.56-.06-.462.045-.934.294-1.327.393-.623.77-1.257 1.128-1.904.009-.016.048-.083.057-.099.412-.75.756-1.416 1.054-2.044l4.69-9.866c.225-.475.44-.982.656-1.549.012-.038.025-.077.04-.115.733-1.94 1.188-3.959 1.35-6.001.065-.82.626-1.518 1.414-1.756l3.445-1.044c4.734-1.434 9.938.24 12.95 4.164v.001c9.935 12.95 14.367 29.653 12.162 45.824l-1.299 9.526c-.089.65-.49 1.216-1.076 1.513-.285.145-.595.217-.906.217zm-8.699-6.25c2.423.027 4.825.479 7.08 1.322l.937-6.869c2.062-15.121-2.084-30.739-11.373-42.85-2.003-2.609-5.465-3.725-8.617-2.771l-2.177.66c-.256 1.907-.727 3.789-1.406 5.61-.013.04-.025.079-.04.118-.27.714-.54 1.356-.827 1.963l-4.691 9.868c-.332.698-.71 1.433-1.155 2.245-.011.019-.056.096-.065.114-.271.486-.558.981-.86 1.478 1.347 8.867 6.24 16.903 13.507 22.134z" fill="#3762cc"/><path d="m39.697 100.333c3.058-2.165 6.793-3.453 10.838-3.453.131 0 .257.017.387.02v-5.734c0-5.297.689-10.434 1.976-15.331-5.109-2.733-9.559-5.779-13.386-8.858-1.847 7.323-2.317 14.998-1.277 22.628z" fill="#4671c6"/><path d="m39.697 102.333c-.27 0-.541-.055-.797-.165-.641-.278-1.09-.872-1.185-1.564l-1.463-10.728c-1.066-7.821-.623-15.689 1.318-23.388.167-.66.658-1.19 1.305-1.407.645-.217 1.357-.09 1.889.338 4.081 3.283 8.481 6.194 13.076 8.652.816.437 1.227 1.377.991 2.272-1.268 4.821-1.91 9.809-1.91 14.822v5.735c0 .538-.217 1.054-.602 1.43s-.907.582-1.443.569c-.091-.002-.181-.007-.271-.014-.009 0-.017 0-.025 0-3.546 0-6.885 1.066-9.728 3.079-.342.244-.748.369-1.155.369zm1.075-31.848c-1.227 6.23-1.414 12.558-.557 18.85l1.054 7.729c2.389-1.196 4.977-1.915 7.652-2.121v-3.776c0-4.831.559-9.639 1.662-14.316-3.396-1.897-6.681-4.029-9.811-6.366z" fill="#3762cc"/><path d="m56.67 115.717c-.166 1.9-.064 3.814.304 5.686.736 3.741 2.521 7.185 5.122 9.958.804.764 4.039 3.39 10.822 3.78.591.021 1.977.052 3.985-.013l.329-.013c2.842-.105 6.808-.403 11.401-1.176 3.951-.665 7.703-2.406 10.567-5.209.298-.292.588-.594.869-.906 3.089-3.436 5.13-7.865 5.564-12.822l.849-9.7c.229-2.613-1.704-4.917-4.317-5.145l-41.045-3.592c-1.52-.133-2.861.992-2.994 2.512z" fill="#4671c6"/><path d="m167.676 115.697c.166 1.9.064 3.814-.304 5.686-.736 3.741-2.521 7.185-5.122 9.958-.804.764-4.039 3.39-10.822 3.78-.591.021-1.977.052-3.985-.013l-.329-.013c-2.842-.105-6.808-.403-11.401-1.176-3.951-.665-7.703-2.406-10.567-5.209-.298-.292-.588-.594-.869-.906-3.089-3.436-5.13-7.865-5.564-12.822l-.849-9.7c-.229-2.613 1.704-4.917 4.317-5.145l41.044-3.591c1.52-.133 2.861.992 2.994 2.512z" fill="#4671c6"/><path d="m74.565 137.166c-.838 0-1.425-.016-1.72-.026-7.479-.43-11.172-3.422-12.127-4.329-.027-.026-.055-.054-.08-.082-2.877-3.065-4.822-6.848-5.627-10.939-.404-2.057-.517-4.158-.334-6.246 0 0 0 0 0-.001l1.456-16.64c.229-2.615 2.541-4.559 5.159-4.329l41.044 3.591c3.708.324 6.46 3.604 6.136 7.312l-.849 9.7c-.458 5.244-2.557 10.08-6.068 13.985-.308.342-.627.675-.955.996-3.063 2.998-7.087 4.987-11.636 5.753-3.903.657-7.826 1.062-11.659 1.203l-.325.012c-.946.03-1.757.04-2.415.04zm-11.052-7.22c.596.551 3.429 2.848 9.52 3.197.445.017 1.795.051 3.806-.016l.317-.012c2.521-.093 6.496-.368 11.146-1.151 3.739-.629 7.024-2.242 9.501-4.665.266-.261.526-.531.777-.812 2.929-3.257 4.678-7.288 5.061-11.661l.849-9.7c.132-1.51-.989-2.847-2.499-2.979l-41.044-3.591c-.282-.021-.467.101-.558.176-.09.076-.245.244-.27.518l-1.456 16.641c-.149 1.713-.057 3.438.275 5.126.655 3.335 2.236 6.421 4.575 8.929z" fill="#3762cc"/><path d="m149.752 137.146c-.661 0-1.456-.01-2.375-.04l-.341-.014c-3.83-.141-7.752-.545-11.655-1.202-4.548-.766-8.57-2.755-11.633-5.751-.329-.322-.65-.655-.96-1.001-3.51-3.903-5.608-8.739-6.066-13.983l-.849-9.7c-.157-1.795.395-3.545 1.553-4.926 1.159-1.381 2.786-2.228 4.583-2.385l41.044-3.591c1.256-.107 2.502.276 3.477 1.096.975.817 1.572 1.966 1.684 3.232l1.455 16.642c.183 2.091.07 4.191-.334 6.245-.805 4.093-2.751 7.876-5.627 10.94-.025.028-.053.056-.08.082-.955.906-4.646 3.898-12.084 4.327-.392.015-.995.029-1.792.029zm13.717-38.611c-.021 0-.044.001-.066.003l-41.046 3.591c-.731.064-1.395.409-1.866.972s-.696 1.275-.633 2.007l.849 9.7c.383 4.372 2.132 8.403 5.059 11.659.253.281.512.552.779.813 2.478 2.424 5.762 4.037 9.501 4.666 4.649.783 8.625 1.059 11.142 1.15l.333.014c1.896.062 3.22.035 3.839.013 6.048-.349 8.879-2.645 9.475-3.195 2.338-2.508 3.92-5.595 4.577-8.93.331-1.686.423-3.409.273-5.126l-1.455-16.64c-.037-.396-.371-.697-.761-.697z" fill="#3762cc"/><path d="m120.43 115.194h-16.556c-1.714 0-3.104-1.39-3.104-3.104 0-1.714 1.39-3.104 3.104-3.104h16.556c1.714 0 3.104 1.39 3.104 3.104 0 1.714-1.39 3.104-3.104 3.104z" fill="#a4c9ff"/><path d="m120.43 117.194h-16.557c-2.814 0-5.104-2.29-5.104-5.104s2.29-5.104 5.104-5.104h16.557c2.814 0 5.104 2.29 5.104 5.104s-2.29 5.104-5.104 5.104zm-16.557-6.209c-.609 0-1.104.495-1.104 1.104s.495 1.104 1.104 1.104h16.557c.609 0 1.104-.495 1.104-1.104s-.495-1.104-1.104-1.104z" fill="#3762cc"/><path d="m132.753 123.872c-.522 0-1.043-.199-1.442-.597-.796-.796-.796-2.087 0-2.884l13.937-13.937c.796-.796 2.087-.796 2.883 0s.796 2.087 0 2.884l-13.937 13.937c-.398.398-.92.597-1.441.597z" fill="#a4c9ff"/><path d="m144.987 123.872c-.522 0-1.043-.199-1.442-.597-.796-.796-.796-2.087 0-2.884l13.937-13.937c.796-.796 2.087-.796 2.883 0s.796 2.087 0 2.884l-13.937 13.937c-.398.398-.92.597-1.441.597z" fill="#a4c9ff"/><path d="m65.57 123.872c-.522 0-1.043-.199-1.442-.597-.796-.796-.796-2.087 0-2.884l13.937-13.937c.796-.796 2.087-.796 2.883 0s.796 2.087 0 2.884l-13.937 13.937c-.398.398-.92.597-1.441.597z" fill="#a4c9ff"/><path d="m77.803 123.872c-.522 0-1.043-.199-1.442-.597-.796-.796-.796-2.087 0-2.884l13.937-13.937c.796-.796 2.087-.796 2.883 0s.796 2.087 0 2.884l-13.937 13.937c-.397.398-.919.597-1.441.597z" fill="#a4c9ff"/><path d="m182.607 249.996h-140.927c-1.104 0-2-.896-2-2v-29.01c0-18.722 15.23-33.952 33.952-33.952h8.082v-11.338c0-.699.365-1.348.963-1.71.599-.363 1.34-.387 1.962-.063 8.433 4.396 17.947 6.719 27.513 6.719 9.556 0 19.059-2.317 27.482-6.703.62-.321 1.365-.299 1.961.064.598.362.963 1.011.963 1.71v11.321h8.098c18.722 0 33.952 15.23 33.952 33.952v29.01c-.001 1.105-.896 2-2.001 2zm-138.927-4h136.928v-27.01c0-16.516-13.437-29.952-29.952-29.952h-10.156c-.021-.001-.045-.001-.068 0-.599 0-1.169-.269-1.549-.73-.38-.463-.536-1.072-.42-1.659.063-.32.095-.595.095-.84v-8.892c-8.239 3.756-17.301 5.729-26.406 5.729-9.116 0-18.189-1.979-26.438-5.743v8.941c0 .222.03.478.096.804.116.588-.036 1.196-.416 1.659s-.947.731-1.546.731h-10.216c-16.516 0-29.952 13.437-29.952 29.952z" fill="#3762cc"/><path d="m195.926 167.744 8.839 17.909c.874 1.771 2.563 2.998 4.518 3.282l19.764 2.872c4.921.715 6.886 6.763 3.325 10.234l-14.301 13.94c-1.414 1.378-2.059 3.364-1.726 5.311l3.376 19.684c.841 4.901-4.304 8.639-8.706 6.325l-17.677-9.294c-1.748-.919-3.836-.919-5.584 0l-17.677 9.294c-4.402 2.314-9.546-1.424-8.706-6.325l3.376-19.684c.334-1.946-.311-3.932-1.726-5.311l-14.301-13.94c-3.561-3.471-1.596-9.519 3.325-10.234l19.764-2.872c1.954-.284 3.644-1.511 4.518-3.282l8.839-17.909c2.2-4.46 8.559-4.46 10.76 0z" fill="#ffea92"/><path d="m213.815 249.999c-1.272 0-2.55-.307-3.731-.928l-17.677-9.293c-1.166-.613-2.557-.613-3.723 0l-17.678 9.293c-2.715 1.427-5.944 1.194-8.424-.608-2.482-1.803-3.702-4.801-3.185-7.824l3.377-19.685c.223-1.298-.207-2.622-1.149-3.54l-14.303-13.94c-2.195-2.141-2.972-5.282-2.024-8.199.947-2.918 3.422-5.005 6.458-5.447l19.765-2.871c1.303-.189 2.429-1.007 3.012-2.188l8.838-17.908c1.358-2.751 4.107-4.46 7.175-4.46h.001c3.067 0 5.815 1.709 7.173 4.46l8.839 17.909c.582 1.181 1.708 1.998 3.012 2.188l19.763 2.871c3.037.441 5.512 2.528 6.459 5.446.947 2.917.172 6.06-2.025 8.2l-14.3 13.94c-.943.919-1.374 2.242-1.15 3.54l3.376 19.685c.519 3.022-.701 6.021-3.183 7.823-1.404 1.018-3.044 1.536-4.696 1.536zm-23.269-14.681c1.278 0 2.558.307 3.723.919l17.677 9.293c1.38.726 2.953.61 4.214-.304 1.259-.915 1.854-2.378 1.59-3.912l-3.376-19.685c-.445-2.596.415-5.243 2.302-7.081l14.3-13.94c1.115-1.086 1.494-2.619 1.013-4.1-.48-1.48-1.688-2.499-3.229-2.723l-19.763-2.871c-2.606-.379-4.858-2.016-6.023-4.376l-8.84-17.91c-.688-1.396-2.029-2.229-3.586-2.229-1.558 0-2.898.833-3.587 2.229l-8.839 17.909c-1.166 2.361-3.418 3.998-6.023 4.377l-19.765 2.871c-1.54.224-2.748 1.242-3.229 2.724-.481 1.48-.103 3.013 1.012 4.099l14.303 13.94c1.885 1.837 2.745 4.484 2.301 7.08l-3.377 19.686c-.264 1.534.332 2.997 1.592 3.912s2.834 1.029 4.212.304l17.678-9.293c1.163-.612 2.442-.919 3.72-.919z" fill="#3762cc"/></svg>