<svg height="512" viewBox="0 0 58 58" width="512" xmlns="http://www.w3.org/2000/svg"><g id="Page-1" fill="none" fill-rule="evenodd"><g id="115---Favourite-Folder" fill-rule="nonzero"><path id="Shape" d="m45 4.99v3.23s-37.26 45.4-37.71 46.06c-.53538092.7607325-1.31542652 1.3148825-2.21 1.57-1.20497884.3378936-2.49865126.0923609-3.49603508-.6635303-.99738382-.7558913-1.58351401-1.9350122-1.58396492-3.1864697v-46.38c-.00188542-.90467521.60580567-1.69713724 1.48-1.93l13.32-3.55c.9916666-.26823138 2.0486287-.14282909 2.95.35l8.27 4.52c.9013713.49282909 1.9583334.61823138 2.95.35l12.26-3.27c.9003747-.23910625 1.8607375-.04636805 2.5991323.52162798.7383949.56799603 1.171023 1.44678927 1.1708677 2.37837202z" fill="#f29c1f"/><path id="Shape" d="m53 9.99v29.73c-.001284 1.802193-1.2101932 3.3799219-2.95 3.85l-44.97 12.28c1.72608654-.4840196 2.91935403-2.0573346 2.92-3.85v-32.38c-.00188542-.9046752.60580567-1.6971372 1.48-1.93l35.52-9.47 4.23-1.13c.9003747-.23910625 1.8607375-.04636805 2.5991323.52162798.7383949.56799603 1.171023 1.44678927 1.1708677 2.37837202z" fill="#f0c419"/><path id="Shape" d="m58 33.24c-.0071874 1.4160147-.1647376 2.8272621-.47 4.21v.01c-1.49 7.03-6.91 16.1-20.53 20.54-13.62-4.44-19.04-13.51-20.53-20.54v-.01c-.3052624-1.3827379-.4628126-2.7939853-.47-4.21 0-7.08 4.28-13.24 10.5-13.24 4.0153495.0221426 7.8322941 1.7488557 10.5 4.75 2.6677059-3.0011443 6.4846505-4.7278574 10.5-4.75 6.22 0 10.5 6.16 10.5 13.24z" fill="#df4d60"/><path id="Shape" d="m58 33.24c-.0071874 1.4160147-.1647376 2.8272621-.47 4.21v.01c-1.4212693 1.8682796-3.0707517 3.5513565-4.91 5.01-9.1128419 7.3600138-22.1271581 7.3600138-31.24 0-1.8392483-1.4586435-3.4887307-3.1417204-4.91-5.01v-.01c-.3052624-1.3827379-.4628126-2.7939853-.47-4.21 0-7.08 4.28-13.24 10.5-13.24 4.0153495.0221426 7.8322941 1.7488557 10.5 4.75 2.6677059-3.0011443 6.4846505-4.7278574 10.5-4.75 6.22 0 10.5 6.16 10.5 13.24z" fill="#ff5364"/></g></g></svg>