<svg height="496pt" viewBox="0 0 496 496" width="496pt" xmlns="http://www.w3.org/2000/svg"><path d="m472 360h-8v-8h-16c0-17.648438-14.351562-32-32-32h-16v-272h-88v-16h-19.054688l-16-32h-153.890624l-16 32h-19.054688v16h-88v448h400v-80h64v-8h8c13.230469 0 24-10.769531 24-24s-10.769531-24-24-24zm-120-40v-16h32v16zm32-32h-32v-32h32zm0-48h-32v-32h32zm0-48h-32v-32h32zm0-48h-32v-32h32zm0-48h-32v-32h32zm-251.054688-80h134.109376l8 16h-150.109376zm-28.945312 32h192v48h-192zm208 64v-48h24v256h-24c-8.824219 0-16-7.175781-16-16h-16c0 17.648438 14.351562 32 32 32h104c8.824219 0 16 7.175781 16 16h-226.214844l-53.335937 32 53.335937 32h130.214844v64h-272v-416h24v48zm-96 288v-32h200v32zm-16-6.128906-16.449219-9.871094 16.449219-9.871094zm-152-249.871094h-32v-32h32zm0 16v32h-32v-32zm0 48v32h-32v-32zm0 48v32h-32v-32zm0 48v32h-32v-32zm0 48v32h-32v-32zm0 48v32h-32v-32zm0-336v32h-32v-32zm-32 384h32v32h-32zm336 32v-32h32v32zm32-48h-32v-16h32zm64-32h-16v-32h16zm24-8h-8v-16h8c4.40625 0 8 3.59375 8 8s-3.59375 8-8 8zm0 0"/><path d="m136 64h16v16h-16zm0 0"/><path d="m248 64h16v16h-16zm0 0"/><path d="m200 320c52.9375 0 96-43.0625 96-96s-43.0625-96-96-96-96 43.0625-96 96 43.0625 96 96 96zm0-176c44.113281 0 80 35.886719 80 80s-35.886719 80-80 80-80-35.886719-80-80 35.886719-80 80-80zm0 0"/><path d="m248 224h16c0-20.910156-10.246094-40.542969-27.425781-52.519531l-9.148438 13.128906c12.886719 8.976563 20.574219 23.710937 20.574219 39.390625zm0 0"/><path d="m218.289062 162.65625c-5.914062-1.761719-12.066406-2.65625-18.289062-2.65625v16c4.679688 0 9.296875.664062 13.710938 1.992188zm0 0"/><path d="m168 177.046875v93.898437l70.425781-46.945312zm16 29.90625 25.574219 17.046875-25.574219 17.046875zm0 0"/><path d="m80 416h16v16h-16zm0 0"/><path d="m112 416h56v16h-56zm0 0"/><path d="m80 448h16v16h-16zm0 0"/><path d="m112 448h56v16h-56zm0 0"/></svg>