<svg id="Capa_1" enable-background="new 0 0 512 512" height="512" viewBox="0 0 512 512" width="512" xmlns="http://www.w3.org/2000/svg"><g><path d="m391 219h30v30h-30z"/><path d="m391 340h30v30h-30z"/><path d="m271 219h30v30h-30z"/><path d="m511.23 159.997h-450.23v28.931c21.406-2.667 43.07 1.339 62.036 11.507 37.461-20.081 84.64-15.692 117.964 13.845v-10.28c0-8.284 6.716-15 15-15h60c8.284 0 15 6.716 15 15v60c0 8.284-6.716 15-15 15h-40.746c1.455 11.56.975 23.347-1.487 34.841l3.971-1.128c28.67-8.162 57.297 13.466 57.297 43.287v103h131.965c24.813 0 45-20.187 45-45.046zm-60.23 225.003c0 8.284-6.716 15-15 15h-60c-8.284 0-15-6.716-15-15v-60c0-8.284 6.716-15 15-15h60c8.284 0 15 6.716 15 15zm0-121c0 8.284-6.716 15-15 15h-60c-8.284 0-15-6.716-15-15v-60c0-8.284 6.716-15 15-15h60c8.284 0 15 6.716 15 15z"/><path d="m511 84c0-24.813-20.187-45-45-45h-31.366v25c0 8.284-6.716 15-15 15s-15-6.716-15-15v-25h-59.036v25c0 8.284-6.716 15-15 15s-15-6.716-15-15v-25h-59.036v25c0 8.284-6.716 15-15 15s-15-6.716-15-15v-25h-59.036v25c0 8.284-6.716 15-15 15s-15-6.716-15-15v-25h-31.526c-24.813 0-45 20.187-45 45v45.997h450.139z"/><path d="m167.526 24c0-8.284-6.716-15-15-15s-15 6.716-15 15v15h30z"/><path d="m256.562 24c0-8.284-6.716-15-15-15s-15 6.716-15 15v15h30z"/><path d="m345.598 24c0-8.284-6.716-15-15-15s-15 6.716-15 15v15h30z"/><path d="m434.634 24c0-8.284-6.716-15-15-15s-15 6.716-15 15v15h30z"/><path d="m285.937 341.571-53.887 15.309c-1.993-4.5-4.899-8.509-8.494-11.777 13.87-13.446 22.515-32.252 22.515-53.05 0-63.798-75.719-97.385-123.036-55.274-47.251-42.057-123.035-8.588-123.035 55.275 0 20.798 8.645 39.603 22.515 53.049-7.048 6.407-11.479 15.645-11.479 25.897v97c0 19.299 15.701 35 35 35h154c14.276 0 26.575-8.596 32.015-20.88l53.886 15.309c9.583 2.727 19.099-4.499 19.099-14.429v-127c0-9.973-9.56-17.145-19.099-14.429z"/></g></svg>