<svg id="Capa_1" enable-background="new 0 0 512 512" height="512" viewBox="0 0 512 512" width="512" xmlns="http://www.w3.org/2000/svg"><path d="m512 212.825h-512v264c0 19.33 15.67 35 35 35h442c19.33 0 35-15.67 35-35z" fill="#5a5555"/><path d="m256 212.825v299h221c19.33 0 35-15.67 35-35v-264z" fill="#453f3f"/><path d="m426 412.326h-71.735v-50h71.735c8.284 0 15-6.716 15-15s-6.716-15-15-15h-340c-8.284 0-15 6.716-15 15s6.716 15 15 15h71.735v50h-71.735c-8.284 0-15 6.716-15 15s6.716 15 15 15h340c8.284 0 15-6.716 15-15s-6.716-15-15-15zm-238.265-50h136.529v50h-136.529z" fill="#fff"/><path d="m502 164.748h-443.625v93.078h443.625c5.523 0 10-4.477 10-10v-73.078c0-5.523-4.477-10-10-10z" fill="#756e6e"/><path d="m502 164.748h-246v93.078h246c5.523 0 10-4.477 10-10v-73.078c0-5.523-4.477-10-10-10z" fill="#5a5555"/><path d="m478.416.328-410.416 72.368 31.355 88.985 395.224-69.689c5.439-.959 9.071-6.146 8.112-11.585l-12.69-71.967c-.959-5.439-6.146-9.071-11.585-8.112z" fill="#756e6e"/><path d="m502.69 80.407-12.689-71.967c-.959-5.439-6.146-9.071-11.585-8.112l-222.416 39.218v94.514l238.579-42.068c5.439-.959 9.07-6.146 8.111-11.585z" fill="#5a5555"/><g fill="#e4dfd9"><path d="m342.343 24.321-73.742 105.315c-.549.784-1.003 1.604-1.383 2.446l41.405-7.301 75.501-107.827z"/><path d="m478.416.328-4.004.706-73.742 105.314c-.549.784-1.003 1.604-1.383 2.446l41.405-7.301 52.496-74.972-3.187-18.081c-.959-5.439-6.146-9.071-11.585-8.112z"/><path d="m404.87 164.748 93.077 93.078h4.053c5.523 0 10-4.477 10-10v-18.373l-64.704-64.705z"/><path d="m270.763 164.748 93.077 93.078h42.426l-93.078-93.078z"/></g><path d="m210.273 47.609-73.742 105.315c-.549.784-1.003 1.604-1.383 2.446l41.405-7.301 75.501-107.827z" fill="#fff"/><path d="m138.286 164.748c.732 1.78 1.818 3.448 3.263 4.894l88.184 88.184h42.426l-93.077-93.078z" fill="#fff"/><path d="m79.949 62.825h-59.949c-11.046 0-20 8.954-20 20v155c0 11.046 8.954 20 20 20h59.536c6.555 0 12.693-3.212 16.431-8.597l55.84-80.46c4.896-7.054 4.742-16.447-.381-23.337l-55.427-74.54c-3.775-5.074-9.726-8.066-16.05-8.066z" fill="#453f3f"/><circle cx="83" cy="160.325" fill="#fff" r="15"/><path d="m187.735 362.326h68.265v50h-68.265z" fill="none"/><path d="m256 362.326h68.265v50h-68.265z" fill="none"/><path d="m426 412.326h-71.735v-50h71.735c8.284 0 15-6.716 15-15s-6.716-15-15-15h-170v30h68.265v50h-68.265v30h170c8.284 0 15-6.716 15-15s-6.716-15-15-15z" fill="#e4dfd9"/></svg>