<svg id="Capa_1" enable-background="new 0 0 512 512" height="512" viewBox="0 0 512 512" width="512" xmlns="http://www.w3.org/2000/svg"><g><path d="m411.865 330.073c8.371 4.325 18.788 9.708 37.984 9.708 19.197 0 29.614-5.383 37.985-9.708 7.133-3.686 12.287-6.348 24.165-6.348v-30.105c-19.197 0-29.614 5.383-37.985 9.708-7.133 3.686-12.287 6.348-24.165 6.348s-17.032-2.663-24.164-6.348c-1.686-.871-3.461-1.784-5.368-2.688-5.984 8.24-12.287 16.528-18.92 24.831 3.737 1.128 6.85 2.732 10.468 4.602z"/><path d="m330.135 401.881c16.308-.779 25.727-5.622 33.402-9.588 7.132-3.686 12.286-6.348 24.163-6.348 11.878 0 17.032 2.663 24.165 6.348 8.371 4.326 18.788 9.708 37.984 9.708 19.197 0 29.614-5.383 37.985-9.708 7.133-3.686 12.287-6.348 24.165-6.348v-30.105c-19.197 0-29.614 5.383-37.985 9.708-7.133 3.686-12.287 6.348-24.165 6.348s-17.032-2.663-24.164-6.348c-8.371-4.325-18.788-9.708-37.985-9.708-4.811 0-9.07.339-12.884.913-7.544 8.352-15.44 16.68-23.712 24.952-6.868 6.869-13.869 13.599-20.969 20.176z"/><path d="m287.571 453.511c8.37 4.324 18.787 9.708 37.982 9.708 19.196 0 29.614-5.383 37.984-9.708 7.132-3.686 12.286-6.348 24.163-6.348 11.878 0 17.032 2.663 24.165 6.348 8.371 4.324 18.788 9.708 37.984 9.708 19.197 0 29.614-5.383 37.985-9.708 7.133-3.686 12.287-6.348 24.165-6.348v-30.105c-19.197 0-29.614 5.383-37.985 9.708-7.133 3.686-12.287 6.348-24.165 6.348s-17.032-2.663-24.164-6.348c-8.371-4.324-18.788-9.708-37.985-9.708-19.196 0-29.613 5.383-37.983 9.708-7.132 3.686-12.286 6.348-24.164 6.348-11.705 0-16.883-2.588-23.856-6.19-8.862 7.417-17.819 14.558-26.827 21.391 4.79 1.117 8.387 2.967 12.701 5.196z"/><path d="m106.281 426.195c7.115 15.745 4.219 34.947-8.703 47.869l-37.128 37.128 48.682-9.694c30.526-6.078 67.36-22.411 106.521-47.234 39.095-24.781 78.843-56.962 114.945-93.065 68.879-68.878 110.787-141.769 135.687-198.57-61.343-6.625-110.181-55.581-116.619-116.979-57.594 25.057-131.746 67.01-199.677 134.941-36.103 36.102-68.283 75.849-93.064 114.944-24.821 39.16-41.154 75.994-47.232 106.52l-9.693 48.681 37.125-37.125c12.922-12.921 32.123-15.817 47.868-8.703l-40.885 40.885.923.923 19.441 19.441.923.923zm44.512-87.085 21.287 21.287-65.799 65.799c-2.062-4.563-4.958-8.839-8.703-12.583-3.745-3.745-8.021-6.641-12.585-8.703z"/><path d="m509.946.808s-66.189 8.388-130.875 32.876c.979 54.351 44.904 98.403 99.207 99.582.268-.708.548-1.431.81-2.131 24.224-64.743 30.858-130.327 30.858-130.327z"/></g></svg>