<?xml version="1.0" encoding="UTF-8"?> <svg xmlns="http://www.w3.org/2000/svg" width="1180" height="560" viewBox="0 0 1180 560"><title>Adapt-Write-Compelling-Brand-Story-Featured-Image</title><g style="isolation: isolate"><g><rect width="1180" height="560" fill="#0c5689"></rect><path d="M130.37,215.33c0,137,59.65,260.08,154.4,344.67h615c94.75-84.59,154.4-207.66,154.4-344.67A459.81,459.81,0,0,0,1001,0H183.53A459.81,459.81,0,0,0,130.37,215.33Z" fill="#2079c3"></path><path d="M289.13,215.33c0,167.42,135.71,303.13,303.12,303.13S895.38,382.75,895.38,215.33A302.19,302.19,0,0,0,805.59,0H378.92A302.19,302.19,0,0,0,289.13,215.33Z" fill="#56adf5"></path><path d="M781.44,75.12a3.66,3.66,0,0,1,.82-.8c4.48-3.12,9.71-8.16,14.84-6.46,3.56,1.18,9.36,0,13.62-3.65a103.56,103.56,0,0,0-7.83-14.64C798,42.12,790.43,42,785.73,44a10.21,10.21,0,0,0-6.06,11.42c.89,4.6-.42,7.61-.79,13.48A7.32,7.32,0,0,0,781.44,75.12Z" fill="#ffcd1c"></path><rect y="358.19" width="1180" height="201.81" fill="#0a3960"></rect><g><g><path d="M246.14,285c-5.7,13.61-11.64,43.93-11.64,43.93s9.58-21.53,12.55-30.53,5.24-27,5.24-27S251.84,271.4,246.14,285Z" fill="#0a3960"></path><g><path d="M222.1,285.11c-.44,28.67,8.82,40.31,8.82,40.31,4.36-10.91-5.7-80.81-5.7-80.81S222.54,256.44,222.1,285.11Z" fill="#0c5689"></path><path d="M234.1,256.75c-.67-19.46-3.69-23.16-2.93-19.77s-2.44,23.46-2.9,46.33a143.56,143.56,0,0,0,5.83,42.25s1.83-12.08,1.67-35.13C235.69,277.11,234.77,276.22,234.1,256.75Z" fill="#0a3960"></path><path d="M242.13,248.7s-5,11.23-5.94,29.09-2.63,40-.13,51.45c0,0,.53-11.28,3.23-20.5s3.59-34.07,3.18-42.17S242.13,248.7,242.13,248.7Z" fill="#0c5689"></path><path d="M211.94,274.69s4.07,36.61,15.11,50.73c0,0-.46-21.14-4.6-29.19S211.94,274.69,211.94,274.69Z" fill="#0c5689"></path></g></g><g><polygon points="218.81 377.57 244.64 377.57 248.83 321.25 214.63 321.25 218.81 377.57" fill="#56adf5"></polygon><path d="M228,363.91a104.51,104.51,0,0,1-9.43,10.54l.23,3.12h25.83l4.19-56.32h-2.56C245.94,336.32,237,352.37,228,363.91Z" fill="#3896e3"></path></g></g><g><path d="M755.55,447.45l1.2.29,1.37.3,1.78.38,2.12.41c.74.15,1.53.28,2.35.43,1.63.28,3.37.53,5.11.76.87.12,1.74.31,2.6.51a11.93,11.93,0,0,0,2.52.38,9.43,9.43,0,0,0,2.34-.28A15.21,15.21,0,0,0,779,450a13.46,13.46,0,0,0,3.12-1.71c.38-.28.68-.52.88-.7s.3-.29.3-.29a.55.55,0,0,0,0-.74l0,0a3.78,3.78,0,0,0-.31-.29c-.21-.18-.51-.42-.89-.7a14.5,14.5,0,0,0-3.18-1.66,14.09,14.09,0,0,0-2.11-.63,9.06,9.06,0,0,0-2.35-.25,11.74,11.74,0,0,0-2.5.41,25.9,25.9,0,0,1-2.59.54c-1.73.25-3.47.53-5.09.83-.81.16-1.6.3-2.34.46l-2.1.44c-.65.13-1.25.28-1.78.4s-1,.22-1.36.32l-1.19.31a.39.39,0,0,0-.26.47A.4.4,0,0,0,755.55,447.45Z" fill="#2079c3"></path><path d="M755.54,446.68s.43-.12,1.19-.3l1.37-.33,1.1-.25c.55.51.72.59.74,1.3a1.3,1.3,0,0,1-.64,1.18l-1.18-.24-1.37-.31-1.2-.29a.38.38,0,0,1-.27-.28A.4.4,0,0,1,755.54,446.68Z" fill="#ffcd1c"></path><path d="M774.48,451l120.33-.82c1.38,0,2.49-.77,2.47-1.71l-.06-4.74c0-.94-1.14-1.69-2.52-1.68l-120.33.82Z" fill="#fff"></path><path d="M884.12,446.22h0a1.17,1.17,0,0,0-1.17-1.14l-108.6.7,0,2.32L883,447.4A1.16,1.16,0,0,0,884.12,446.22Z" fill="#a1d2f8"></path><path d="M853.68,447.59a1.87,1.87,0,0,0,.67-1.23,1.43,1.43,0,0,0-.7-1.09l-79.3.51,0,2.32Z" fill="#ffcd1c"></path><g><path d="M886.83,441c17.11-.11,44.11,3,44.11,3,1.31,0,1.78,1.06,1.8,2.37s-.42,2.38-1.74,2.39c0,0-26.9,3.51-44,3.62a7.28,7.28,0,0,0,3.06-5.81A6.57,6.57,0,0,0,886.83,441Z" fill="#ffcd1c"></path><path d="M932.74,446.45c0,.51-20,.89-42.71.37,0-.06,0-.11,0-.17a6.4,6.4,0,0,0-.46-2.39C910.11,443.65,932.73,445.57,932.74,446.45Z" fill="#ffe16e"></path><path d="M886.87,452.65a.54.54,0,0,0,.55,0,7.41,7.41,0,0,0,3.16-6,6.77,6.77,0,0,0-3.35-5.81.54.54,0,0,0-.72.23.53.53,0,0,0,.22.72h0a5.67,5.67,0,0,1,2.77,4.87,6.41,6.41,0,0,1-2.66,5.07.53.53,0,0,0-.16.74A.54.54,0,0,0,886.87,452.65Z" fill="#ffcd1c"></path></g><path d="M864.89,452l.54.08c.35.05.88.14,1.54.21s1.46.18,2.39.26,2,.19,3.09.26,2.36.17,3.66.21,2.66.14,4.08.14,2.88.08,4.36.06l4.5,0,4.5-.16c.75,0,1.48,0,2.21-.1l2.15-.14c1.41-.07,2.78-.2,4.07-.32s2.51-.24,3.64-.37,2.17-.26,3.08-.39,1.72-.26,2.37-.37,1.18-.21,1.53-.28l.54-.1h0a.1.1,0,0,0,.09-.13.12.12,0,0,0-.11-.1L889,451l-24.13.19a.4.4,0,0,0-.4.41.41.41,0,0,0,.35.4Z" fill="#ffcd1c"></path><path d="M763.7,449.14a2.33,2.33,0,0,0,1.64-2.17,2.46,2.46,0,0,0-1.31-2.16l10.74-2.07A4.41,4.41,0,0,1,778,447a4.15,4.15,0,0,1-3.08,4.19Z" fill="#a1d2f8"></path></g><path d="M673,117.45v14.08h-8.65l1.52-13.16.54-4.62h2.89a3.57,3.57,0,0,1,1.42.29s0,0,0,0A3.72,3.72,0,0,1,673,117.45Z" fill="#dd9903"></path><path d="M609.13,400.63c0,6.15-8.1,11.13-18.09,11.13s-18.08-5-18.08-11.13,8.1-11.13,18.08-11.13S609.13,394.49,609.13,400.63Z" fill="#2079c3"></path><polygon points="811.88 406.43 370.2 406.43 370.2 130.75 394.56 130.75 588.55 149.19 694.28 130.75 811.88 130.75 811.88 406.43" fill="#2079c3"></polygon><rect x="379.66" y="141.62" width="211.45" height="254.19" fill="#0a3960"></rect><path d="M388.49,130.2c-.12,6-.91,11.39-6,14.47l-.66,233.24c5.07,3.16,6.19,8.8,6.6,15.13,68.72-21,133.58-20.08,202.65,2.79V133C522.05,110.12,457.21,109.2,388.49,130.2Z" fill="#a1d2f8"></path><path d="M379.66,133V395.83c3.22-1.07,6.43-2.07,9.63-3V130C386.09,130.93,382.88,131.93,379.66,133Z" fill="#0c5689"></path><path d="M591,395.78c-63.35-40.17-122.67-44.52-186-37V96c63.35-7.53,122.67-3.17,186,37Z" fill="#c7e4f9"></path><path d="M591,395.65c-50-43.47-96.85-61.86-146.88-57.64V75.18c50-4.22,96.86,14.16,146.88,57.64Z" fill="#fff"></path><rect x="590.97" y="141.62" width="211.45" height="254.19" fill="#0a3960"></rect><path d="M794.93,380.15l.44-234.83c-5.43-3-2-8.8-2.5-15.34-68.45-20.77-133.08-19.78-201.9,3,0,44.65-20.51,83-20.51,127.67,0,43,6.11,101.07,20.51,135.17,68.66-22.74,133.16-23.78,201.43-3.16C793.41,387.31,790.12,382.71,794.93,380.15Z" fill="#fff"></path><g><path d="M791.77,129.65V392.48l2.9.89V130.53Z" fill="#0c5689"></path><path d="M794.67,130.53V393.37l2.63.83V131.37Z" fill="#0c5689"></path><path d="M797.3,131.37V394.2l2.63.84V132.2Z" fill="#0c5689"></path><path d="M802.43,133l-2.5-.79V395c.83.26,1.66.51,2.5.79Z" fill="#0c5689"></path></g><path d="M611.74,126.57c-8.63,2.2-12,3.43-20.77,6.32V387.07" fill="#c7e4f9" opacity="0.44"></path><g><g opacity="0.44" style="mix-blend-mode: multiply"><path d="M669.62,116l-.07,4.92-.16,12.87-.53,29.48c-6.88-5.64-10.3-8.59-16.2-13.63-5.29,4.71-12.4,11-17,16.56l.71-45.59a5.13,5.13,0,0,1,5.22-5.06c9,.14,15.2.25,24.58.41C667.28,116,668.42,116,669.62,116Z" fill="#def1fe"></path></g><path d="M668.67,113.74l-.07,4.92-.16,12.87L667.91,161c-6.88-5.64-10.3-8.59-16.2-13.63-5.29,4.71-12.4,11-17,16.56l.71-42.86c0-2.84-.42-4.07,5.22-5.06a125.78,125.78,0,0,1,24.58-2.33Z" fill="#ffcd1c"></path><path d="M670.71,114c-1,.45-2,1.47-2,3.82a3.78,3.78,0,0,1-.07.8c-.33,2.75-2.09.58-2.73-.31a3.79,3.79,0,0,1-.22-.33l-.42-4.33,3.44,0h.62A3.76,3.76,0,0,1,670.71,114Z" fill="#ffcd1c"></path></g><g><line x1="500.94" y1="240.69" x2="457.33" y2="240.69" fill="none" stroke="#0c5689" stroke-miterlimit="10" stroke-width="3"></line><line x1="486.11" y1="293.79" x2="442.51" y2="293.79" fill="none" stroke="#0c5689" stroke-miterlimit="10" stroke-width="3"></line><line x1="493.53" y1="267.24" x2="449.92" y2="267.24" fill="none" stroke="#0c5689" stroke-miterlimit="10" stroke-width="3"></line><line x1="471.29" y1="346.88" x2="429.87" y2="346.88" fill="none" stroke="#0c5689" stroke-miterlimit="10" stroke-width="3"></line><line x1="478.7" y1="320.34" x2="437.25" y2="320.34" fill="none" stroke="#0c5689" stroke-miterlimit="10" stroke-width="3"></line><line x1="463.87" y1="373.43" x2="422.42" y2="373.43" fill="none" stroke="#0c5689" stroke-miterlimit="10" stroke-width="3"></line><line x1="471.29" y1="346.88" x2="429.83" y2="346.88" fill="none" stroke="#0c5689" stroke-miterlimit="10" stroke-width="3"></line><line x1="455.47" y1="401.69" x2="414.02" y2="401.69" fill="none" stroke="#0c5689" stroke-miterlimit="10" stroke-width="3"></line><line x1="474" y1="188.12" x2="401.68" y2="447.1" fill="none" stroke="#0c5689" stroke-miterlimit="10" stroke-width="3"></line><line x1="515.62" y1="188.12" x2="443.3" y2="447.1" fill="none" stroke="#0c5689" stroke-miterlimit="10" stroke-width="3"></line><line x1="508.36" y1="214.15" x2="464.75" y2="214.15" fill="none" stroke="#0c5689" stroke-miterlimit="10" stroke-width="3"></line></g><g><path d="M668.53,198.34a1.44,1.44,0,0,1-1.56-.7l-11.12-18.32a1.65,1.65,0,0,1,.55-2.33,1.56,1.56,0,0,1,2.26.59l11,18.35a1.65,1.65,0,0,1-.55,2.32Z" fill="#c7e4f9"></path><path d="M645.08,217a.62.62,0,0,1-.5-.26l-17.87-10.84a1.65,1.65,0,0,1-.54-2.33,1.57,1.57,0,0,1,2.26-.58l17.87,10.84a1.64,1.64,0,0,1,.54,2.33A1.7,1.7,0,0,1,645.08,217Z" fill="#c7e4f9"></path><path d="M738.63,220.08a1.42,1.42,0,0,1-1.43-.93,1.65,1.65,0,0,1,.89-2.22l19.15-8.5a1.57,1.57,0,0,1,2.15.92,1.65,1.65,0,0,1-.9,2.22l-19.32,8.32A.64.64,0,0,1,738.63,220.08Z" fill="#c7e4f9"></path><path d="M721.17,201.85a.66.66,0,0,1-.51-.26,1.66,1.66,0,0,1-.57-2.33l10.48-18.66a1.57,1.57,0,0,1,2.26-.61,1.65,1.65,0,0,1,.56,2.33L722.92,201A1.73,1.73,0,0,1,721.17,201.85Z" fill="#c7e4f9"></path><path d="M694.8,195.27a.63.63,0,0,1-.57,0,1.64,1.64,0,0,1-1.57-1.8l.73-21.39a1.57,1.57,0,0,1,1.73-1.58,1.65,1.65,0,0,1,1.57,1.81L696,193.69A1.71,1.71,0,0,1,694.8,195.27Z" fill="#c7e4f9"></path><path d="M735.62,236.65c-2-9.43-6.44-17.57-13.24-23.3-7.87-6.66-18.25-10-30.77-10q-19.86,0-31.67,10.54a40.92,40.92,0,0,0-12.89,24.23,52.47,52.47,0,0,0,3.58,28.29c3.94,9.06,10,15.53,17.18,17.94,1.79.74,1.61,5.54,1.61,8.87v2.59c0,4.07,3.58,7.58,5.19,8.88v15.35a5.25,5.25,0,0,0,3.22,5l11.45,4.81a6.83,6.83,0,0,0,5.37,0L706.1,325a5.25,5.25,0,0,0,3.22-5V304.7c1.61-1.3,5.19-4.81,5.19-8.88v-2.4c-.18-3.52-.36-8.14,1.61-9.06C730.79,277.52,739.56,256.62,735.62,236.65Zm-29.88,83.58a1.84,1.84,0,0,1-1.25,1.85L693,326.89a3.85,3.85,0,0,1-2.87,0l-9.84-4.07,25.41-4.25Zm0-5.18-28.09,4.81v-4.07L705.74,311Zm0-7.39-28.09,4.8v-6.65h28.09Zm-29.16-43.09a1.38,1.38,0,0,1-.36-.74.67.67,0,0,1,.18-.37c.35-.37,1.61-.74,2.86.56a2.22,2.22,0,0,0,2.33.74c1.25-.37,1.61-1.85,1.79-3,0-.19.17-.56.17-.74.18.37.18.55.36.92.54,1.3,1.08,2.78,2.51,3a2.38,2.38,0,0,0,2.32-.92,4.88,4.88,0,0,0,1.08-2.59c.53-1.67,1.07-3.15,1.79-3.15.89,0,1.25,1.48,1.79,3.15a8.28,8.28,0,0,0,1.07,2.59,2.9,2.9,0,0,0,2.32.92c1.44-.37,2-1.66,2.51-3,.18-.18.18-.55.36-.92,0,.37.18.55.18.74.18,1.29.53,2.59,1.79,3A2.21,2.21,0,0,0,704,264c1.25-1.3,2.33-1.11,2.86-.56.18.19.36.37-.17,1.11-15.21,15.72-12.35,29.59-10.74,37.17a.68.68,0,0,0,.18.55h-8.77a.68.68,0,0,1,.18-.55C688.92,294.16,691.78,280.29,676.58,264.57Zm38.29,16.83c-3.94,1.85-3.76,7.58-3.58,12.2V296c0,2.59-2.51,5.17-3.94,6.47h-7.69v-.19c0-.37-.18-.74-.18-1.11-1.43-7.39-3.94-19.6,9.84-34,2-2,1.61-4.44.18-5.73a4.68,4.68,0,0,0-6.26-.37c-.36-1.48-.9-3.7-3.22-3.7-2,0-2.69,1.85-3.4,3.33-.54-2-1.79-5.18-4.84-5.18h0c-3,0-4.11,3.33-4.83,5.18-.53-1.48-1.43-3.33-3.4-3.33-2.14,0-2.86,2.22-3.22,3.7a4.9,4.9,0,0,0-6.26.37A3.84,3.84,0,0,0,673,264.2a4.13,4.13,0,0,0,1.25,3c14,14.42,11.45,26.81,9.84,34,0,.37-.18.74-.18,1.11v.19h-7.33c-1.44-1.11-3.94-3.88-3.94-6.47V293.6c.18-4.8.36-10.72-3.76-12.2-13.06-4.62-21.47-24-18.61-42.72,1.61-9.61,8.59-32,41.34-32,31.31,0,39,21.45,40.79,30.7C736.7,255.7,728.82,275.11,714.87,281.4Z" fill="#c7e4f9"></path></g><g><path d="M429.92,201.07c-.87,7.53,6.62,7.9,6.62,7.9h4l-.52,8.11h0l-.61,5.52c10.69,0,22.28-.37,33-.24l-.11-5.23h0l.24-23.16,5.33-20.2s-1-3.35-6.23-4.76l-14.15-6.67s0-.07,0-.1,0,0,0-.06l-.1,0-.2.07-.2-.07-.1,0v.06s0,.06,0,.1l-14.84,6.19a8.3,8.3,0,0,0-5.85,5.07h0l0,.06c-.07.19-.1.3-.1.3h0L429.92,201h0v0h0Z" fill="#ffcd1c"></path><path d="M429.92,201.07h0v0h0L436,174h0s0-.11.1-.3l0-.06h0a8.3,8.3,0,0,1,5.85-5.07l14.84-6.19s0-.07,0-.1v-.06l.1,0,.2.07.2-.07.1,0s0,0,0,.06,0,.06,0,.1l4.4,2.08-.49.19a35.17,35.17,0,0,0-6.41,3.11c-5.76,3.95-7.05,5.78-11,11.61a27.54,27.54,0,0,0-4.73,16.07c0,1.32.16,6.54.28,7.91.2,2.39.51,4.83.94,7.26l-3.83-1.6S429.05,208.6,429.92,201.07Z" fill="#ffbc00"></path><path d="M502.29,210.38s1.33,1.79.74,2.12-11.15.05-11.15.05l.19-5,6-.25Z" fill="#ffe99a"></path><path d="M467.92,144.93l-.57,9.94a8.23,8.23,0,0,1-8.68,7.77c-4.54-.26-9-5.87-8.77-10.42l.38-8.29Z" fill="#ffe99a"></path><path d="M453.92,155.48h6.19a1.81,1.81,0,0,1,1.81,1.81v6.36c0,2.53-9.81,2.24-9.81-.66v-5.7A1.81,1.81,0,0,1,453.92,155.48Z" fill="#ffe99a"></path><path d="M449.59,143.77c.41-7.35,8.14-5.86,8.14-5.86l12.59.71c-.36,6.31-2.4,6.3-2.4,6.3a1.5,1.5,0,0,0-1.59,1.44l-.25,5.29A8.65,8.65,0,0,1,457,159.8l-4-.23c-3.82-2.28-3.7-9.36-3.7-9.36Z" fill="#002138"></path><polygon points="481.57 203.82 472.77 207.52 468.01 185.52 477.65 173.58 481.57 203.82" fill="#ffcd1c"></polygon><path d="M481.57,203.82l9.93,3.3s4.53,1,1.43,5.35l-13.71.54s-4.35.46-6.45-5.49C472.77,207.52,480.5,203.31,481.57,203.82Z" fill="#ffcd1c"></path><path d="M471.37,234.08c.06-.23-1.39-.65-1.32-1s-1.62.65,1-.49c.63-.28-1.62-.31-1.65-1-1-2.48,2.87-6.62,3.16-9.15l-.22-.09-33,.24v8.77a8.47,8.47,0,0,0,8.46,8.47l22,.47,2.61.08C472.54,238.2,470.78,236.36,471.37,234.08Z" fill="#002138"></path><path d="M461.51,266l12.52.82L468,311.65l-7.69-.07s-.31-33.09-.15-35.41S461.51,266,461.51,266Z" fill="#002138"></path><path d="M441.56,266l12.53.82-5.91,44.77-7.85,0s-.31-33.09-.16-35.41S441.56,266,441.56,266Z" fill="#002138"></path><path d="M468,311.43l4.21,3.35c4.23.44,4.52,3.79,4.52,3.79H460a18.3,18.3,0,0,1,.41-7.14Z" fill="#ffcd1c"></path><path d="M448.21,311.43l4.22,3.35a4.16,4.16,0,0,1,3.56,3.79H439.32a16.34,16.34,0,0,1,.86-7.14Z" fill="#ffcd1c"></path><path d="M440.76,232.47a38.42,38.42,0,0,1,1.61,10,70.68,70.68,0,0,1,0,8.61c-.18,3.89-.36,7.78-.68,11.65-.45,5.5-.43,12.21,1.06,17.51,2.75-1.49,5.58-3.05,7.52-5.5,2.87-3.65,3.27-8.59,3.57-13.22l1.33-21.05c.16-2.49.26-5.18-1.13-7.25-2.21-3.25-6.89-3.34-10.81-3.09a5.67,5.67,0,0,0-3.1.82" fill="#002138"></path><path d="M439.45,228a119.45,119.45,0,0,0,1,19.48,154.24,154.24,0,0,1,1.32,17.29C442,267.16,447,264,447,264l1.1-26.65Z" fill="#002138"></path><path d="M454.09,266.78s5.56-22,6.05-26.59-7.43-4.63-7.43-4.63l-2,34.52Z" fill="#002138"></path><path d="M461.51,266s-2.69-12.07-4.83-23.3,2.14-6.77,2.14-6.77l13.51-13.53s3.34,26.41,3,33.68-2.81,20-2.81,20Z" fill="#002138"></path></g><g><path d="M289.25,305.24,307.71,307l.2,10.7c-.88,6.41-4.47,38.1-4.47,38.1h-.21L296,404.31c.45,2.2,5.4,6.32,8.36,6.53a3.24,3.24,0,0,1,2.87,3.14H289.18a71.62,71.62,0,0,1,.85-9.79c-.33-8.08-1.21-31.21-.51-36.56.72-5.55,2.06-12.93,2.44-15,.12-6.3.12-20.08-1.92-29.48C287.32,310.61,289.25,305.24,289.25,305.24Z" fill="#944c0c"></path><path d="M289.25,305.24,307.71,307l.2,10.7c-.58,4.23-2.34,19.44-3.47,29.32a4.89,4.89,0,0,0-3.58,1.12c-8.94,7.18-7.85,21.76-8.85,32.07-.74,7.64-1.65,15.44-.09,23A23.7,23.7,0,0,0,297.33,414h-8.15a71.62,71.62,0,0,1,.85-9.79c-.33-8.08-1.21-31.21-.51-36.56.72-5.55,2.06-12.93,2.44-15,.12-6.3.12-20.08-1.92-29.48C287.32,310.61,289.25,305.24,289.25,305.24Z" fill="#542a00" opacity="0.8"></path><path d="M316.64,225a10.86,10.86,0,0,1,6.45,12.15c-.95,4.91.44,8.11.84,14.36s-5.46,8.33-5.46,8.33c-.43,13.91-26.2,2.34-30.15-.8s4.87-20.18,10.05-28.11S311.63,222.81,316.64,225Z" fill="#002138"></path><path d="M306.5,404.91c-.31-5.3-1.83-31.43-1.07-37.28.79-6,2.3-14.23,2.52-15.41.57-7.11-1.11-27-1.11-27l-.68-21.09,15.54-.88s.19,3.79.48,12-3,40.44-3,40.44l-6.74,49.74c1.26,2.22,5.89,5.29,8.73,5.48a3.3,3.3,0,0,1,3,3.14H305.14a32.34,32.34,0,0,1,1.28-9.07Z" fill="#944c0c"></path><path d="M306.5,404.91c-.31-5.3-1.83-31.43-1.07-37.28.79-6,2.3-14.23,2.52-15.41.57-7.11-1.11-27-1.11-27l-.68-21.09,15.54-.88s.19,3.79.48,12c.19,5.35-1.16,21-2.11,31.23a4.09,4.09,0,0,0-4.12,1.42c-5.11,5.66-6.21,12.82-6.92,20.16-.88,9.08-.82,18-1,27.1-.14,6.35-2.22,14.25,2.95,18.89h-5.81a32.34,32.34,0,0,1,1.28-9.07Z" fill="#542a00" opacity="0.8"></path><path d="M296.26,411.45c2.82.34,3.92.29,6.55-1,0,0,2,.44,2.17.49,1.77.39,2.21,2.32,2.29,3H289.18c0-1.19,0-2.81.1-3.87C291,411.27,294.5,411.25,296.26,411.45Z" fill="#ffcd1c"></path><path d="M320,410.65h0a6.12,6.12,0,0,0,1.13.2,3.3,3.3,0,0,1,3,3.13H305.14c0-1.13,0-2.63.11-3.56C310.19,410.74,315.22,413.15,320,410.65Z" fill="#ffcd1c"></path><path d="M320.14,255s2.76.63,2.62,6.78c-.11,5.25,2,18.08,2,18.08l7.77,4.67a35.19,35.19,0,0,1-1.84,5.15,2.61,2.61,0,0,1-3.21,1s-7.86-2.43-10.49-4.86S310,255.8,320.14,255Z" fill="#ffcd1c"></path><path d="M289.25,305.23l33.65.44s2.76,37,1.06,38.24c0,0-20.79,1.07-37.13-.85,0,0-.05-12.74,1.09-27.31A59.24,59.24,0,0,1,289.25,305.23Z" fill="#fff"></path><path d="M289.25,305.24l4.26.05c2.28,14.56,5.16,30.08,16.58,38.92a210.93,210.93,0,0,1-23.26-1.15s-.05-12.74,1.09-27.31A59,59,0,0,1,289.25,305.24Z" fill="#def1fe"></path><path d="M327.59,286.57a3.82,3.82,0,0,0,4.2.52,15.78,15.78,0,0,1-1.06,2.62,2.61,2.61,0,0,1-3.21,1s-7.86-2.43-10.49-4.86a1.6,1.6,0,0,1-.16-.19,43.57,43.57,0,0,0,1.39-12.48A24.85,24.85,0,0,0,327.59,286.57Z" opacity="0.06"></path><path d="M302.71,248.66c2.19-.65,15.82,5.18,18.22,6.93l-.87,12s1.31,4.37,1.09,6.56a7.46,7.46,0,0,1-2,3.94s-.44,13.34.21,15.3,3.5,12.25,3.5,12.25-18.35,3.5-33.65-.44c0,0,4.37-12,4.37-20.77s-4.8-17.5-4.8-17.5-2.19-7.43-.22-11.15C288.6,255.81,300.53,249.32,302.71,248.66Z" fill="#ffcd1c"></path><path d="M303.88,243.45l7.14,3.82-.5,3.12,4.81,2.12s-5.65,7.08-17.68-1.7a17.19,17.19,0,0,0,4.81-2.83A6.6,6.6,0,0,0,303.88,243.45Z" fill="#944c0c"></path><path d="M295.7,273.92c-.21,10.43,1.51,21.72,8.86,29.46a26.65,26.65,0,0,0,4.37,3.68,72.67,72.67,0,0,1-19.68-1.82s4.37-12,4.37-20.78-4.8-17.5-4.8-17.5a30.6,30.6,0,0,1-.72-3.29c2.18,1,4.29,2.06,6.38,3.2A51.57,51.57,0,0,0,295.7,273.92Z" fill="#ffbc00"></path><path d="M308.37,282.91s8.25-3.4,8.74-3.4,8.45,2.91,8.45,2.91,0,.88-.78,1l-4.08-.49-5.15,5-1.36-.39a33.91,33.91,0,0,1-3.49.87,15.89,15.89,0,0,1-2.82-.19l-4.76,1.46.88-6.13Z" fill="#944c0c"></path><path d="M319.92,279.38a1.3,1.3,0,0,1,.71-.57c2.09-.7,11-3.69,16.8-5.77.89-.31.5.66.5.66l-8.41,11.55-14.68,4.22s-.85-.21-.57-.66C315.88,286.26,319.92,279.38,319.92,279.38Z" fill="#002138"></path><path d="M303.88,243.45l7.14,3.82-.5,3.12,2.07.91a5.38,5.38,0,0,0-.93,1c-.65.89-4,.63-4.83.47a8.16,8.16,0,0,1-4.47-2.74c-.36-.36-.71-.72-1.06-1.09a7.38,7.38,0,0,0,1.16-.93A6.6,6.6,0,0,0,303.88,243.45Z" fill="#542a00" opacity="0.8"></path><polygon points="338 273.7 329.69 285.8 314.91 289.44 320.81 279.6 338 273.7" fill="#002138"></polygon><g><g><rect x="330.68" y="282.32" width="3.93" height="1.45" rx="0.73" fill="#944c0c"></rect><path d="M326.06,285h6.73a.73.73,0,0,1,0,1.45h-6.73a.73.73,0,0,1,0-1.45Z" fill="#944c0c"></path><path d="M326.84,287.54l2.61.4,2.7.41a.66.66,0,0,1,.46.8,1,1,0,0,1-1,.68l-5-.85a.85.85,0,0,1-.68-.92A.82.82,0,0,1,326.84,287.54Z" fill="#944c0c"></path><path d="M325.53,286.31s3-.9,4-1.26a7.91,7.91,0,0,0,2.92-1.56l1.84.05a2.88,2.88,0,0,0-.44,1.21,7.43,7.43,0,0,1-.09,1.95c-.17.53-.69.47-.61.68.34.9-.65,1.21-.65,1.21l-6.8-.92s-.63-.19-.73-.68S325.53,286.31,325.53,286.31Z" fill="#944c0c"></path></g><path d="M331.89,289.61a5.37,5.37,0,0,1-2.47,1c-1.31.09-2.6-1.61-2.6-1.61l6-1.12Z" fill="#944c0c"></path></g><path d="M283.92,263.27c2.48-6.27,2.73-6.89,4.81-7.87,7.13-3.37,8.3,8.31,8.3,8.31l-9.61,19.83c2.81.44,17.5-.63,17.5-.63l-.44,6.71c-6.55,2.18-23.67,3.42-25.51,3-2.91-.73-2.72-3.94-2.62-6.42S281.45,269.54,283.92,263.27Z" fill="#ffcd1c"></path><path d="M282.94,265.83c-1.7,5.27-4.18,15.38-2.5,18.27,4.76,8.16,15.91,3.75,24.08,2.5h.16l-.2,3c-6.55,2.18-23.67,3.42-25.51,3-2.91-.73-2.72-3.94-2.62-6.42C276.43,284,280.32,272.76,282.94,265.83Z" fill="#ffbc00"></path><path d="M303.38,233.79c.58.19,1.05,2.75,1.05,2.75s4.78-5.53,5.85-5.73,8.25-1,9.23,1.81-.51,7.91-1.29,10.24-3,7.28-7.47,7.78c-1.16.12-3.69-2.14-5.73-3.7s-2.14-5.73-2.14-5.73l-.19-1.46s-1.65-.16-1.75-2.88S302.8,233.59,303.38,233.79Z" fill="#944c0c"></path><path d="M320.58,232.07s1.7,5.42.39,6.27c-3.51,2.28-10.9-5.34-10.9-5.34s-7.1,0-6.55,13c0,.25-.83.5-1.57-1.61-1.27-3.6-2.74-10.56-2.74-10.56l12.23-5.65Z" fill="#002138"></path></g><g><path d="M654.44,348.22s-.89,4.79.18,6.91l.35,5.14s1.42.53,1.59-1.77,0-4.43.71-3a20.82,20.82,0,0,1,1.24,3.72l-.35,6a3,3,0,0,0,1.06,1.6l2.3-8.33a32.34,32.34,0,0,0-2.83-10.63Z" fill="#ffcd1c"></path><path d="M645.24,288.3c-2.23-4.13-8.35-3.94-8.58,1-.39,8.87,5.36,33.11,5.36,33.11l11.6,27.07,6.67-1.83-10.11-27.23C650,312.62,648.83,295,645.24,288.3Z" fill="#56adf5"></path><path d="M634.49,365.3,633,345.19l-15.11-2.54s-4.65,13.08-3.43,22.65c.74,5.82,4.2,23.33,3.38,33.11-.29,3.44.1,10.83,1.83,20.77,2.32,13.27,6,20.73,6.18,23l5.8-.83s-2.27-39.48-2.07-41.56S634.49,365.3,634.49,365.3Z" fill="#002138"></path><path d="M633.55,353l-.6-7.83-15.11-2.54s-4.65,13.08-3.43,22.65c.74,5.82,4.2,23.33,3.38,33.11-.29,3.44.1,10.83,1.83,20.78,2.32,13.26,6,20.72,6.18,23l5.8-.83s-.07-1.22-.19-3.23c-11.34-25.13-16.53-54.69-3.69-79.76A11.8,11.8,0,0,1,633.55,353Z" fill="#002138"></path><path d="M632,346l1.16,23.84,6.56,23.9s-6.56,12.58-9.07,19.21-9.08,25.08-9.08,25.08l5.8,1.65,21.82-36.06s4.25-5.8,4.05-11.19S648,348.3,648,348.3Z" fill="#002138"></path><path d="M647.75,390c-.76-2.37-1.43-4.7-2.36-7-3.27-8.23-8.77-16.71-12.84-25.21l.59,12.14,6.56,23.9s-6.56,12.58-9.07,19.21-9.08,25.08-9.08,25.08l4.11,1.17c1.42-3,2.88-6,4.36-9,4.34-8.81,7.35-17.92,11.94-26.61,2.07-3.91,4.49-7.72,5.5-11,.1-.32.25-1.55.34-1.87C647.7,390.1,647.52,389.25,647.75,390Z" fill="#002138"></path><path d="M637.56,446.38a10.3,10.3,0,0,1-6-5h-5.41l-.39.83a67.37,67.37,0,0,1,.47,6.73l12.88.33A2.17,2.17,0,0,0,637.56,446.38Z" fill="#ffcd1c"></path><path d="M637.21,445.83c-3.39,0-5.28.08-8.48-1a2.51,2.51,0,0,1-1.47-3.49h-1.07l-.39.83s-.38,4.56-.38,7.46h14.09S640.65,447.89,637.21,445.83Z" fill="#2079c3"></path><path d="M630.21,442.67l-2.33-3.43-6.33-1.19a31.51,31.51,0,0,0-2.89,7s7.61,3.17,8.77,3.17l8.59.33S638,447.21,630.21,442.67Z" fill="#ffcd1c"></path><path d="M634.13,446.8a17.23,17.23,0,0,1-13.69-5.68,1.92,1.92,0,0,1-.26-.32,21.6,21.6,0,0,0-1.52,4.29s7.72,4.56,8.88,4.56h9.08s.87-1.21-1-3.38A2.62,2.62,0,0,1,634.13,446.8Z" fill="#2079c3"></path><path d="M641.13,286c-17.71-7.29-30.16,5.61-30.16,5.61a29.28,29.28,0,0,1,3.71,8c1.12,4.23,9.21,18.21,9.08,24.88-.1,5.27-6.17,21.71-6.17,21.71l31.4,3.31s-.42-.83.27-4.94-2.8-46.88-2.8-46.88S645.8,288,641.13,286Z" fill="#fff"></path><path d="M649.16,308.3s-1.09-7.73-1.65-9.69c-.87-3.06-2.62-11.71-5.29-12.92a28.52,28.52,0,0,0-7.46-1.81,54.23,54.23,0,0,1,5.08,10.44c2.08,5.17,4.67,10.32,5.57,15.87s.54,11.78.44,17.47c-.11,5.92-1.71,23.47-1.77,24.74l8.1-1.1A32.22,32.22,0,0,0,652,344C650.6,332.82,649.16,308.3,649.16,308.3Z" fill="#56adf5"></path><path d="M636.37,302.65a48,48,0,0,0-3-4.95c-2.62-4.56-6.3-8.38-8.75-13a2.58,2.58,0,0,1-.13-.31A31,31,0,0,0,611,291.65a29.28,29.28,0,0,1,3.71,8c1.12,4.23,7,18.34,6.89,25-.1,5.27-8.65,29.4-8.65,29.4s6.31.28,15.1-.14c2.4-.11,8.78-1.92,8.78-1.92.51-9.65,2.33-23.06,2.17-32.74C638.88,313.34,638.53,307.67,636.37,302.65Z" fill="#56adf5"></path><path d="M626.59,315.88c-.67-.92-1.29-1.85-1.86-2.81-1.44-1.43-3.08-2.94-3.66-3.37a38.26,38.26,0,0,0-3.83-2.45c2,5.82,4.41,13.13,4.33,17.4-.1,5.27-8.65,29.4-8.65,29.4s6.08.26,14.6-.12c.87-3.95,1.4-8.63,2.43-12.31.11-.4.23-.79.34-1.18a50,50,0,0,0-.51-16.26C629.1,321.17,628.37,318.33,626.59,315.88Z" fill="#3896e3"></path><path d="M627.49,276.56l-2.59,7.67c1.75,2.63,5.82,4.39,7.24,4.28,2.68-.2,2.28-4.66,2.28-4.66l.59-5.53Z" fill="#ffcd1c"></path><path d="M627.49,276.56l-1,2.9c.6,2.14,1.46,4.17,3.46,5.39a11.11,11.11,0,0,0,4.28,1.38,8.84,8.84,0,0,0,.17-2.38l.59-5.53Z" fill="#ffbc00"></path><path d="M636.57,260c-5.93-1.87-12.6,2.5-13.22,5.58s.91,8.93,3,13.65c0,0,6.65,5,9.36,3.69s4.18-3.4,5.25-7.28S642.49,261.85,636.57,260Z" fill="#ffcd1c"></path><path d="M638.91,258.51c-4.19-3.55-8.16-3-12.83-.22s-6.23,9.84-3.76,15.07,4,5.86,4,5.86l.29-5c-1.1.28-2.21-1.38-1.39-4.13s3.5,1.27,3.5,1.27,0-2.6.72-2.48c2.65.45,3.35-6,8.75-6,3.11,0,3.35,4.92,3.35,4.92S645.29,263.93,638.91,258.51Z" fill="#002138"></path><path d="M618.29,258c-3,3.3-1,15.29,3.29,13.47,5.49-2.34,4.12-11.82,4.12-11.82S621.31,254.7,618.29,258Z" fill="#002138"></path><path d="M626,281.5l-5.08,4,1.51,4.67,5.49,1.79L626,294.42c7.69,4.95,12.9,20.78,12.9,20.78-.2-12.37-6.18-20.64-11.12-28.06C625.45,283.69,626,281.5,626,281.5Z" fill="#3896e3"></path><path d="M640.65,289.61l1.51-.82s-4.53-3.78-6-4.81l-1.75-.93-.1,2.16s8.88,12.08,11.55,27.44c0,0-1.8-16-2.49-20.15Z" fill="#3896e3"></path><g><path d="M574.93,358.23l4.34,7.59L687.11,304s1.72-2.82.47-5.13a4.4,4.4,0,0,0-4.81-2.46Z" fill="#0c5689"></path><polygon points="576.14 360.35 578.06 363.7 688.66 300.3 686.79 296.92 576.14 360.35" fill="#116daa"></polygon><path d="M579.44,357.21l3,5.24a1.36,1.36,0,0,1-.51,1.85l-4.62,2.64a4.38,4.38,0,0,1-6-1.62h0a4.37,4.37,0,0,1,1.63-6l4.62-2.64A1.36,1.36,0,0,1,579.44,357.21Z" fill="#0c5689"></path><path d="M699,292.19,687.11,304a5,5,0,0,0-.2-5.26,4.34,4.34,0,0,0-4.14-2.33Z" fill="#ffe16e"></path><path d="M576.81,357.17a5,5,0,0,1,4.2,2.65,4.82,4.82,0,0,1,.14,4.94l10.1-5.79s1.67-1.65,0-4.87a5.23,5.23,0,0,0-4.37-2.72Z" fill="#002138"></path><path d="M699,292.19l-4.42,4.39a2.28,2.28,0,0,0,0-1.92,2,2,0,0,0-1.66-.89Z" fill="#0c5689"></path></g><path d="M621.51,321.68c-3.8-.47-10.42-.93-10.42-.93l-1.26,8.77a63.78,63.78,0,0,0,27.67-4.75l-.33-4.26S625.31,322.15,621.51,321.68Z" fill="#ffcd1c"></path><path d="M617,320.58c1.3-8.57,1.79-20.28,1.79-20.28s-.6-15.16-7.43-9.24c0,0-3.38,5.16-3.65,17.82s-.77,18.81,1.74,20.44a3.5,3.5,0,0,0,3,.54,52.13,52.13,0,0,0,20.3-2.33c-.27-1.71-.68-6.34-.69-6.42C629,321.22,622.32,320.89,617,320.58Z" fill="#56adf5"></path><path d="M619.83,326c-5.85-1-9.69-7.56-9.86-13-.24-7.65,1.46-15.33,2.8-22.83,0-.05,0-.11,0-.17a6.39,6.39,0,0,0-1.48,1s-3.38,5.16-3.65,17.82-.77,18.81,1.74,20.44a3.5,3.5,0,0,0,3,.54,52.13,52.13,0,0,0,20.3-2.33c0-.17,0-.37-.08-.59A74.91,74.91,0,0,1,619.83,326Z" fill="#3896e3"></path><path d="M653.69,319.57a76.62,76.62,0,0,1-7.53,1.89c-1.61.15-1.18-.84-1.18-.84l.94-.16a18.31,18.31,0,0,0,.89-1.7l-4.27-.22-6.63,2.21-.08,4s5.95,1.11,7.42,1.34a8.13,8.13,0,0,0,3-.18l4.07-1.78L653,321.3l2.7-1.59C655,319,653.69,319.57,653.69,319.57Z" fill="#ffcd1c"></path></g><g><g><path d="M895.93,308.17l-12.46,2.31c.69-3.15,1.16-5.58,1.27-6.79.82-8.36-14.72-15.26-14.72-15.26l-6.66,22.08a38.07,38.07,0,0,0-1,4.06c-1,5.17-3.32,18.52-3.5,25.25v.08l-.15-.11c.55,7.68,2.54,70.33,2.54,70.33l7.37-1.71c1.73-6.49,2.81-18.55,3.86-24.18,3.06-16.41,2.11-26.84.82-32.63h0s2.38-9,4.92-19.17c1.19,6.23,6.3,33.07,6.52,35,.25,2.13-1.94,42.1-1.94,42.1L889.6,411c.16-2.36,3.88-10.13,6-23.86,1.63-10.3,1.88-17.92,1.5-21.47-1.06-10.07,2.22-28.2,2.88-34.23C901.12,321.57,895.93,308.17,895.93,308.17Z" fill="#0c5689"></path><path d="M878.1,333.05c-.31-1.16-.61-2.33-.91-3.49-4.08,6.54-8.61,13.46-10,21.05-1.35,7.27-.16,15.27.38,22.6.9,12,1.82,24.35-1.76,35.86l2.85-.66c1.73-6.49,2.81-18.55,3.86-24.18,3.06-16.41,2.11-26.84.82-32.63h0S875.62,343,878.1,333.05Z" opacity="0.06"></path><path d="M895.93,308.17l-3.64.68a8,8,0,0,1,1.15,2.28c1.55,4.84,1.37,9.74,1.33,14.87,0,4.48-1,8.89-1.61,13.3-1.43,9.76-.77,19.87-.9,29.72s1.18,20.05-1.42,29.52a66.75,66.75,0,0,1-4.64,11.7l3.4.78c.16-2.36,3.88-10.13,6-23.86,1.63-10.3,1.88-17.92,1.5-21.47-1.06-10.07,2.22-28.2,2.88-34.23C901.12,321.57,895.93,308.17,895.93,308.17Z" opacity="0.06"></path><path d="M897.59,249.45c-17.11-8.29-37.11-2-40.32,5.1-2,4.51,8.92,45.55,8.92,45.55l30.62,4.4c-4.87-25.85,3.05-43.64,3.18-51.52A3.93,3.93,0,0,0,897.59,249.45Z" fill="#fff"></path><path d="M883.89,280c-5,7.13-11,12.35-19.13,14.3.85,3.53-3.16,20.93-3.16,20.93h37.23c-4.63-35.73.49-48.92.7-58.95a50,50,0,0,0-7.95,10.8A101.5,101.5,0,0,1,883.89,280Z" fill="#fff"></path><path d="M861,403.32c-5.66,5.42-15,6.69-15.78,7.84s.74,1.56,4.4,1.79,19.53-.64,19.53-.64a24,24,0,0,0-.09-7Z" fill="#fff"></path><path d="M883.23,402.87c-5.66,5.42-15,6.69-15.78,7.84s.74,1.56,4.4,1.79,19.53-.64,19.53-.64a24,24,0,0,0-.09-7Z" fill="#fff"></path><path d="M880.05,236.19l-8,.33a94.75,94.75,0,0,0-.28,10.2c0,1.48.56,3.33,2.61,3.58,1.88.24,6.94.47,7.27-4.39C881.63,245.91,879.77,243.29,880.05,236.19Z" fill="#944c0c"></path><path d="M880.05,236.19l-8,.33s-.33,3.32-.3,8.61c3.18-.32,6.33-1.11,8.6-3.33A28.48,28.48,0,0,1,880.05,236.19Z" fill="#542a00"></path><path d="M886.71,223.8c-2.05-3.61-16.13-3.84-16.13-3.84s-9.63,22.53.67,23,9.36-3,9.36-3S889.33,228.43,886.71,223.8Z" fill="#944c0c"></path><path d="M879.35,217.46c-2.49-.83-9.32-.81-10.22.48-.48.68.11,5.24.28,5.28,11.18,2.17,12.64,6.21,12.71,6.94s-2.62,11.07-1.82,11.38c2.27-4.09,7.49-9.34,8.07-15.21C888.8,221.9,881.83,218.3,879.35,217.46Z" fill="#002138"></path><path d="M882.89,234.39a4.89,4.89,0,0,0-2.52,0l-2.61,3.93C880.64,241,884.51,235.33,882.89,234.39Z" fill="#944c0c"></path><path d="M880.83,244.11c.22,4.58-7.43,5.74-7.43,5.74l1.28,3.34s4.32-.49,6-1.87c3.25-2.62,2.24-5.7,2.24-5.7Z" fill="#c7e4f9"></path><path d="M871.74,244.16l-2.64,2.68s-.39,3.85,2.47,5.68l2-2.74A6.32,6.32,0,0,1,871.74,244.16Z" fill="#c7e4f9"></path><path d="M899.48,257.32l-.29-.15-1.66,1.31a46.71,46.71,0,0,0-5.89,8.47,38.14,38.14,0,0,1-.37,12.28c0,.5-.74,5.82-.76,6.31,1.11.67,1.79-1.12,1.9,1.11.07,1.23-3,2.19-3.11,3.41-.18,2.66,0-3.87.22-1.21.57,5.62-3.41,15.63-7,26.36h16.36C894.36,280.73,899,267.24,899.48,257.32Z" fill="#c7e4f9"></path></g><g><path d="M859.42,252.41s-3.21.74-3,7.87a171.4,171.4,0,0,1-1.13,17.22l-9,5.41s1.41,4.92,2.14,6a3,3,0,0,0,3.72,1.13s9.13-2.82,12.17-5.64S875.6,249.76,859.42,252.41Z" fill="#fff"></path><path d="M874.32,281s-9.58-3.95-10.14-3.95-9.81,3.38-9.81,3.38,0,1,.9,1.13L860,281l5.52,6.25,2-.95s3,.9,4.05,1a18.74,18.74,0,0,0,3.27-.23l5.52,1.69-1-7.11Z" fill="#944c0c"></path><polygon points="839.93 270.31 849.57 284.35 866.73 288.58 859.88 277.16 839.93 270.31" fill="#002138"></polygon><g><g><rect x="843.86" y="280.32" width="4.56" height="1.69" rx="0.84" fill="#944c0c"></rect><path d="M853.78,283.36H846a.85.85,0,0,0,0,1.69h7.81a.85.85,0,0,0,0-1.69Z" fill="#944c0c"></path><path d="M852.88,286.37l-3,.46-3.13.48a.76.76,0,0,0-.54.93,1.23,1.23,0,0,0,1.17.79l5.78-1a1,1,0,0,0,.79-1.07C853.83,286.52,853.24,286.32,852.88,286.37Z" fill="#944c0c"></path><path d="M854.4,284.94s-3.49-1-4.62-1.46c-2.71-1-3.39-1.81-3.39-1.81l-2.14.06a3.14,3.14,0,0,1,.51,1.41,8.4,8.4,0,0,0,.11,2.25c.2.62.8.56.71.79-.4,1.05.76,1.41.76,1.41l7.89-1.07s.73-.22.84-.79S854.4,284.94,854.4,284.94Z" fill="#944c0c"></path></g><path d="M847,288.78a6.4,6.4,0,0,0,2.88,1.13c1.52.11,3-1.86,3-1.86l-7-1.3Z" fill="#944c0c"></path></g><path d="M902.69,258.2c-2.87-7.27-3.16-8-5.58-9.14-8.27-3.91-9.63,9.65-9.63,9.65l11.15,23c-3.26.51-20.31-.73-20.31-.73l.51,7.78c7.6,2.54,27.48,4,29.61,3.44,3.38-.85,3.16-4.57,3-7.45S905.57,265.48,902.69,258.2Z" fill="#fff"></path><path d="M903.83,261.17c2,6.12,4.86,17.85,2.9,21.2-5.52,9.48-18.46,4.37-28,2.91h-.18l.23,3.51c7.6,2.54,27.48,4,29.61,3.44,3.38-.85,3.16-4.57,3-7.45C911.38,282.24,906.87,269.21,903.83,261.17Z" fill="#c7e4f9"></path></g></g><path d="M789.94,69.73s-7-.28-9.51,10.28c-3.5,14.41-10.78,32-10.78,32l7.57,1.62,13.18-27.8S796.14,65.39,789.94,69.73Z" fill="#2079c3"></path><path d="M790.66,69.3c-3.18,1.11-7.33.85-10.12,10.13a51.39,51.39,0,0,1,9.27,6.51l.38.33.21-.45S797.81,66.8,790.66,69.3Z" fill="#2079c3"></path><g><path d="M793,107.87S764.9,116.24,753.68,119,744,132.51,744,132.51s14-.57,16.27-1.68,37.44.58,37.44.58c9.47-1.35,6.55-19,6.55-19Z" fill="#0a3960"></path><path d="M792.29,111.4s-3.8.87-19.6-.44c-11.86-1-18.76.87-21.46,1.86a4.43,4.43,0,0,0-2.23,1.77h0a33,33,0,0,0-5,8.46c-2.34,5.8-16.52,30.12-16.52,30.12l6.5,2.68s12.32-13.66,16.5-19.49c1.88-2.63,4.72-7.7,5.07-12.62,5.91,1.37,21.95,4.86,33.27,5.64,13.8,1,13.08-4.88,13.08-4.88Z" fill="#fdefcd"></path><path d="M802.6,124.71,792.29,111.4s-3.8.87-19.6-.44c-10.49-.88-17.09.47-20.34,1.48,3.78,2.91,5.8,7.43,6.82,12.12,7.38,1.62,20.18,4.18,29.67,4.83C802.64,130.34,802.6,124.71,802.6,124.71Z" fill="#0a3960"></path><path d="M758.61,121.09a3.88,3.88,0,0,1-.76-1.34c-.07-.22-.14-.44-.22-.66a7.54,7.54,0,0,0-5.09,4.28c-2.42,5.07-5.22,10-8.09,14.81-3.36,5.67-6.13,11.89-10.4,16.9-.3.36,0,.89-.33,1.11l.28-.33s12.32-13.66,16.5-19.49a28.18,28.18,0,0,0,4.75-12.83c1.83.42,4.66,1.07,8,1.78A13.12,13.12,0,0,1,758.61,121.09Z" fill="#ffe99a"></path><path d="M789.32,69.87c-2.67,1.65-4.11,5.35-4.6,8.64-.32,2.13-1.71,3.75-3.18,7-2.53,5.68,1.83,8.65,1.83,8.65s2.32,14.49-2.48,17c.42.33,5.1,2.11,5.78,2.52l.65.42.55.13c1.1.31,2.17.7,3.28,1,.85.21,1.7.38,2.55.53-.07,0,2.11.21,2.5.23a68.39,68.39,0,0,0,7.44,0c.41,0,.82-.06,1.23-.09,1.58-4.56,7-23.34,8.22-31.36s-2.69-12.24-2.69-12.24C799.29,63.69,789.32,69.87,789.32,69.87Z" fill="#2079c3"></path><path d="M802.75,79.12c-2,1.43-2.33,11.94-2.75,18.17-.5,7.37-9.34,8.23-16.47,10.58a2.93,2.93,0,0,1-.37.1,5.15,5.15,0,0,1-2.27,3.2c.42.33,5.1,2.11,5.78,2.52l.65.42.55.13c1.1.31,2.17.7,3.28,1,.85.21,1.7.38,2.55.53-.07,0,2.11.21,2.5.23a68.39,68.39,0,0,0,7.44,0c.41,0,.82-.06,1.23-.09,1.58-4.56,5.73-23.53,7-31.54A22.43,22.43,0,0,0,812,78C810.38,79.36,804.47,77.8,802.75,79.12Z" fill="#0c5689"></path><path d="M757.41,121a7.71,7.71,0,0,0-3.55,3.84c-1.19,3.62-4.46,50.76-4.46,50.76l6.06-.78s5.33-18.37,7.7-25.67c2.78-8.56,2.7-14.93,1.92-16.26S789,130.71,789,130.71L763.38,120.5A6.76,6.76,0,0,0,757.41,121Z" fill="#fdefcd"></path><path d="M755.46,174.78s5.33-18.37,7.7-25.67c2.78-8.56,2.7-14.93,1.92-16.26-.05-.09,0-.18.24-.27a4.26,4.26,0,0,1-1.15-1.57,8.7,8.7,0,0,0-2.34,4.37c-1.67,6.33-1.92,12.91-3,19.35-1.13,6.62-2.09,10.24-3.66,19.65" fill="#ffe99a"></path><path d="M807.35,108.59a14.91,14.91,0,0,1,.19-3.07,4.58,4.58,0,0,0-1.37.14c-5.11,1.36-21.69,3.59-21.69,3.59l.93,4.67s13.23,2.5,22.62-1A19.61,19.61,0,0,1,807.35,108.59Z" fill="#2079c3"></path><polygon points="778.7 108.43 772.39 112.82 781.44 114.06 787.75 114.06 784.48 109.25 778.7 108.43" fill="#fdefcd"></polygon><path d="M720,159.17s-2.41,1.41-5.55,3.42c-2.36,1.5-.12,3.95,3.84,3.42,6.41-.85,6.63-2.35,9.19-2.14a10,10,0,0,0,5.13-1.28s1.57-.36,1.78-7l-6-3.5Z" fill="#fdefcd"></path><path d="M717.38,161.27a4.83,4.83,0,0,1-.68-.11l-2.27,1.43c-2.36,1.5-.12,3.95,3.84,3.42,6.41-.85,6.63-2.35,9.19-2.14a10,10,0,0,0,5.13-1.28s.7-.17,1.23-2.26a21.25,21.25,0,0,1-6.93,2C724,162.77,720,163,717.38,161.27Z" fill="#2079c3"></path><path d="M749.35,175.3s-1.85,3.67-8.15,7c-.61.32-1.64,2.34-.72,2.68l16.08-3.38a20.59,20.59,0,0,0-1.15-6.88Z" fill="#fdefcd"></path><path d="M745.55,181.13a4.31,4.31,0,0,1-2.22-.1q-1,.61-2.13,1.23c-.61.32-1.64,2.34-.72,2.68l16.08-3.38a15.56,15.56,0,0,0-.31-3.48A47.92,47.92,0,0,1,745.55,181.13Z" fill="#2079c3"></path><path d="M765.4,133.22c1-1.25,23.62-2.51,23.62-2.51l-25.24-12.4a9.9,9.9,0,0,0-6.64.25C758.41,123.46,762.3,129.67,765.4,133.22Z" fill="#0a3960"></path></g><path d="M803.88,75.49c-1.51,2.25-2.33,12.91-1.07,22s-.75,14.78,4.08,15.45,6-10.42,6.36-23c.24-7.15.72-13.45-2.36-16.1C807.4,70.81,805.35,73.3,803.88,75.49Z" fill="#2079c3"></path><g><polygon points="750.71 87.78 757.46 113.75 778.61 114.58 771.85 88.62 750.71 87.78" fill="#002138"></polygon><path d="M757.36,112.41l0,.35a1.73,1.73,0,0,0,1.65,1.78l33.13,1.31c.94,0,3.38-.63,3.42-1.58l-1.63-.41Z" fill="#002138"></path></g><path d="M765.08,132.85a17.29,17.29,0,0,1,2,3c.43,1.09,11.54-2.39,15.89-2.17s15.46-1.09,17.86-3.27-9.15-8.49-9.15-8.49Z" fill="#0a3960"></path><path d="M797.62,61.45l-7,3.75.48,3.06-4.65,2.46s5.49,6.58,17.29-2A17.06,17.06,0,0,1,799,65.9,6.46,6.46,0,0,1,797.62,61.45Z" fill="#fdefcd"></path><path d="M797.62,61.45l-7,3.75.48,3.06-2.22,1.15c.32.26.83.33,1.1.7.65.88,3.91.61,4.75.46a7.93,7.93,0,0,0,4.39-2.69c.35-.35.7-.71,1-1.07A7.49,7.49,0,0,1,799,65.9,6.46,6.46,0,0,1,797.62,61.45Z" fill="#ffe99a"></path><path d="M798.18,52.26c-.55.18-1,2.59-1,2.59s-4.48-5.2-5.49-5.38-7.75-1-8.66,1.69.47,7.43,1.2,9.62,2.78,6.84,7,7.3a7.07,7.07,0,0,0,5.63-3c1.45-1.93,1.76-5.85,1.76-5.85l.18-1.37s1.55-.15,1.64-2.71S798.73,52.08,798.18,52.26Z" fill="#fdefcd"></path><path d="M782,50.64s-1.59,5.09-.36,5.9c3.3,2.14,10.24-5,10.24-5s6.67,0,6.15,12.19c0,.23.78.47,1.48-1.51,1.19-3.39,2.56-9.92,2.56-9.92L790.61,47Z" fill="#ffcd1c"></path></g></g></svg> 