<svg id="Capa_1" enable-background="new 0 0 512 512" height="512" viewBox="0 0 512 512" width="512" xmlns="http://www.w3.org/2000/svg"><g><path d="m106.015 164.112c18.032 0 30-9.023 30-15s-11.968-15-30-15c-18.311 0-31 8.877-31 15s12.689 15 31 15z"/><path d="m259.384 108.286c14.019-11.763 17.271-26.089 13.33-30.776-3.896-4.673-18.574-3.984-32.622 7.808-14.019 11.763-17.271 26.089-13.33 30.776 3.94 4.658 18.618 3.94 32.622-7.808z"/><path d="m106 239.126h.015c28.92-.029 57.391-9.688 78.032-29.282 11.147-10.635 25.767-16.494 40.708-16.509 32.617-1.76 53.057-2.624 82.837-27.583 45.073-37.837 55.005-97.778 22.588-136.465-23.086-27.465-63.472-36.665-101.397-22.895-19.314 7.062-36.531 19.158-49.453 33.647-13.989 15.63-34.658 23.379-55.869 20.332-20.127-2.944-42.074-.718-60.517 6.021-38.232 13.916-62.944 46.392-62.944 82.764.029 50.434 47.157 89.956 106 89.97zm114.814-176.792c25.781-21.621 58.696-23.423 74.883-4.102 16.216 19.336 8.73 51.416-17.036 73.037-21.949 18.411-56.494 26.039-74.883 4.102h-.015c-16.2-19.336-8.715-51.416 17.051-73.037zm-114.799 41.778c33.647 0 60 19.761 60 45s-26.353 45-60 45-61-19.761-61-45 27.352-45 61-45z"/><path d="m326.884 188.736c-25.699 21.537-58.065 34.922-91.86 34.922l-11.206-.337c-6.401.015-13.521 2.944-19.058 8.232-18.977 18.005-36.978 25.702-57.599 31.452-18.375 86.951 9.633 182.886 79.016 244.928l4.482 3.999 5.991-.19c104.253-3.267 194.678-72.151 230.347-170.179l45.003-119.077-18.076-2.769c-53.346-8.163-106.593-22.482-156.431-41.587-3.503 3.56-6.676 7.304-10.609 10.606zm-65.874 60.966c14.414 5.244 25.928 15.791 32.402 29.692l-27.188 12.686c-3.091-6.65-8.599-11.675-15.483-14.18-6.914-2.563-14.355-2.183-20.962.908l-12.686-27.187c13.931-6.503 29.517-7.177 43.917-1.919zm36.899 156.622c-9.434 0-18.984-1.641-28.228-4.995-29.414-10.708-49.907-36.665-53.481-67.749l29.795-3.428c2.314 20.024 15 36.094 33.94 42.979 18.955 6.943 38.994 2.754 53.613-11.118l20.625 21.768c-15.57 14.75-35.683 22.543-56.264 22.543zm75.864-115.577c14.414 5.244 25.928 15.791 32.402 29.692l-27.188 12.686c-3.091-6.65-8.599-11.675-15.483-14.18-6.899-2.549-14.37-2.197-20.962.908l-12.686-27.188c13.903-6.503 29.489-7.147 43.917-1.918z"/></g></svg>