<?xml version="1.0" encoding="iso-8859-1"?>
<!-- Generator: Adobe Illustrator 19.0.0, SVG Export Plug-In . SVG Version: 6.00 Build 0)  -->
<svg version="1.1" id="Layer_1" xmlns="http://www.w3.org/2000/svg" xmlns:xlink="http://www.w3.org/1999/xlink" x="0px" y="0px"
	 viewBox="0 0 512 512" style="enable-background:new 0 0 512 512;" xml:space="preserve">
<g>
	<g>
		<path d="M316.877,82.77c-1.638-2.384-5.313-1.838-6.187,0.918l-3.988,12.567l-25.284-8.022c-3.131-0.994-6.474,0.74-7.468,3.871
			l-22.131,69.746l17.96-11.977c14.075-9.388,33.103-5.581,42.487,8.491c0.495,0.742,0.945,1.501,1.367,2.268l17.924-56.489
			L316.877,82.77z"/>
	</g>
</g>
<g>
	<g>
		<path d="M402.367,56.53c-20.429,0-36.99,16.561-36.99,36.99c0,20.439,16.56,36.902,36.837,36.987
			c0.05,0.01,0.102,0.017,0.153,0.028c0.05-0.011,0.102-0.018,0.152-0.028c20.273-0.083,36.838-16.543,36.838-36.987
			C439.357,73.091,422.796,56.53,402.367,56.53z"/>
	</g>
</g>
<g>
	<g>
		<path d="M508.186,211.063c-22.87-28.031-33.525-40.128-36.631-43.791c-11.252-13.267-22.318-24.404-39.851-24.404
			c-23.298,0-40.072,0-58.676,0h-0.001c-18.125,0-31.299,11.593-39.157,34.456c-0.965,2.807-29.885,83.869-40.105,111.852
			c-3.213,8.785,1.305,18.509,10.09,21.72c8.799,3.217,18.514-1.32,21.72-10.09c0.767-2.088,20.419-55.897,33.656-93.368
			l-0.637,5.208l-23.417,120.902c-1.12,5.795,3.313,11.208,9.236,11.208c3.642,0,8.03,0,12.922,0c0,13.103,0,109.635,0,122.845
			c0,11.224,9.098,20.322,20.322,20.322c11.224,0,20.322-9.098,20.322-20.322c0-13.211,0-109.737,0-122.845c2.922,0,5.853,0,8.775,0
			v12.263v110.581c0,11.224,9.098,20.322,20.322,20.322c11.224,0,20.322-9.098,20.322-20.322c0-13.211,0-109.737,0-122.845
			c4.892,0,9.281,0,12.923,0c5.863,0,10.367-5.374,9.236-11.208l-13.976-72.159l-0.039-0.204l-4.626,1.193
			c-7.872,2.029-16.005,0.581-22.622-3.773l-14.998,6.413c-3.411,1.458-7.357-0.124-8.816-3.535l-23.462-54.867
			c-1.459-3.411,0.124-7.358,3.535-8.816l34.052-14.561c3.411-1.458,7.358,0.124,8.816,3.535l8.946,20.92
			c0.14-0.038,0.278-0.083,0.419-0.12l8.469-2.184c-0.732-5.981-0.354-2.894-2.317-18.941h0.454
			c10.093,11.672,17.475,20.514,21.68,25.566l-25.449,6.562c-9.058,2.336-14.506,11.571-12.171,20.627
			c2.333,9.048,11.557,14.507,20.628,12.171l51.215-13.206c5.591-1.442,10.063-5.633,11.863-11.12
			C512.956,221.563,511.837,215.537,508.186,211.063z"/>
	</g>
</g>
<g>
	<g>
		<circle cx="146.535" cy="86.884" r="35.965"/>
	</g>
</g>
<g>
	<g>
		<path d="M301.214,165.734c-5.316-7.971-16.089-10.128-24.065-4.809l-32.006,21.343c-9.467-11.727-16.896-20.926-26.403-32.703
			c-7.829-9.696-19.466-15.257-31.927-15.257c-12.267,0-68.487,0-81.387,0l-49.047-33.234L33.756,35.755
			c-3.138-9.057-13.023-13.852-22.077-10.719C2.623,28.174-2.176,38.058,0.96,47.113l24.509,70.77
			c1.227,3.538,3.564,6.586,6.664,8.687l68.868,46.163c-0.006,171.051-0.378,22.338-0.378,294.32c0,11.5,9.323,20.825,20.825,20.825
			c11.501,0,20.824-9.323,20.824-20.825V300.608h8.991v166.445c0,11.5,9.323,20.825,20.825,20.825s20.824-9.323,20.824-20.825
			c0-6.39,0.007-294.224,0.007-294.224c21.145,26.188,13.965,17.296,35.174,43.565c5.63,6.975,15.655,8.521,23.129,3.536
			l45.184-30.132C304.378,184.482,306.532,173.708,301.214,165.734z"/>
	</g>
</g>
<g>
</g>
<g>
</g>
<g>
</g>
<g>
</g>
<g>
</g>
<g>
</g>
<g>
</g>
<g>
</g>
<g>
</g>
<g>
</g>
<g>
</g>
<g>
</g>
<g>
</g>
<g>
</g>
<g>
</g>
</svg>
